<svg width="20" height="20" viewBox="0 0 20 20" fill="#0084ff" xmlns="http://www.w3.org/2000/svg">
    <path d="M9.99995 12.4584C9.88884 12.4584 9.78467 12.4409 9.68745 12.4059C9.59023 12.3714 9.49995 12.3125 9.41662 12.2292L5.56245 8.37502C5.40967 8.22224 5.33689 8.03113 5.34412 7.80169C5.35078 7.5728 5.43051 7.38197 5.58328 7.22919C5.73606 7.07641 5.93051 7.00002 6.16662 7.00002C6.40273 7.00002 6.59717 7.07641 6.74995 7.22919L9.99995 10.4792L13.2708 7.20835C13.4236 7.05558 13.6147 6.98252 13.8441 6.98919C14.073 6.99641 14.2638 7.07641 14.4166 7.22919C14.5694 7.38197 14.6458 7.57641 14.6458 7.81252C14.6458 8.04863 14.5694 8.24308 14.4166 8.39585L10.5833 12.2292C10.4999 12.3125 10.4097 12.3714 10.3124 12.4059C10.2152 12.4409 10.1111 12.4584 9.99995 12.4584Z" fill="#0084ff"/>
</svg>
    