<svg width="44" height="46" viewBox="0 0 44 46" fill="none" xmlns="http://www.w3.org/2000/svg">
<path d="M22 40.3333C19.4639 40.3333 17.0806 39.8518 14.85 38.8887C12.6194 37.9268 10.6792 36.6208 9.02916 34.9708C7.37916 33.3208 6.07322 31.3805 5.11133 29.15C4.14822 26.9194 3.66666 24.5361 3.66666 22C3.66666 19.4639 4.14822 17.0805 5.11133 14.85C6.07322 12.6194 7.37916 10.6792 9.02916 9.02916C10.6792 7.37916 12.6194 6.0726 14.85 5.10949C17.0806 4.1476 19.4639 3.66666 22 3.66666C24.5361 3.66666 26.9194 4.1476 29.15 5.10949C31.3806 6.0726 33.3208 7.37916 34.9708 9.02916C36.6208 10.6792 37.9268 12.6194 38.8887 14.85C39.8518 17.0805 40.3333 19.4639 40.3333 22C40.3333 24.5361 39.8518 26.9194 38.8887 29.15C37.9268 31.3805 36.6208 33.3208 34.9708 34.9708C33.3208 36.6208 31.3806 37.9268 29.15 38.8887C26.9194 39.8518 24.5361 40.3333 22 40.3333Z" fill="#0185ff"/>
<path d="M22 37.8333C19.8097 37.8333 17.7514 37.4174 15.825 36.5857C13.8986 35.7549 12.2229 34.6271 10.7979 33.2021C9.37291 31.7771 8.24505 30.1014 7.41433 28.175C6.58255 26.2486 6.16666 24.1903 6.16666 22C6.16666 19.8097 6.58255 17.7514 7.41433 15.825C8.24505 13.8986 9.37291 12.2229 10.7979 10.7979C12.2229 9.37291 13.8986 8.24452 15.825 7.41274C17.7514 6.58202 19.8097 6.16666 22 6.16666C24.1903 6.16666 26.2486 6.58202 28.175 7.41274C30.1014 8.24452 31.7771 9.37291 33.2021 10.7979C34.6271 12.2229 35.7549 13.8986 36.5857 15.825C37.4174 17.7514 37.8333 19.8097 37.8333 22C37.8333 24.1903 37.4174 26.2486 36.5857 28.175C35.7549 30.1014 34.6271 31.7771 33.2021 33.2021C31.7771 34.6271 30.1014 35.7549 28.175 36.5857C26.2486 37.4174 24.1903 37.8333 22 37.8333Z" fill="black" fill-opacity="0.8"/>
<path d="M22 30.2333L11 19.2333L13.5667 16.6667L22 25.1L30.4333 16.6667L33 19.2333L22 30.2333Z" fill="#0185ff"/>
</svg>
