<svg width="16" height="16" viewBox="0 0 16 16" fill="none" xmlns="http://www.w3.org/2000/svg">
<g clip-path="url(#clip0_302_358)">
<path fill-rule="evenodd" clip-rule="evenodd" d="M11.1459 14.854C11.1923 14.9006 11.2475 14.9375 11.3082 14.9627C11.369 14.9879 11.4341 15.0009 11.4999 15.0009C11.5656 15.0009 11.6307 14.9879 11.6915 14.9627C11.7522 14.9375 11.8074 14.9006 11.8539 14.854L15.8539 10.854C15.9477 10.7601 16.0005 10.6328 16.0005 10.5C16.0005 10.3672 15.9477 10.2399 15.8539 10.146C15.76 10.0521 15.6326 9.99937 15.4999 9.99937C15.3671 9.99937 15.2397 10.0521 15.1459 10.146L11.9999 13.293V3.5C11.9999 2.83696 11.7365 2.20107 11.2676 1.73223C10.7988 1.26339 10.1629 1 9.49986 1H1.49988C1.36728 1 1.24008 1.05268 1.14628 1.14645C1.05258 1.24021 0.999878 1.36739 0.999878 1.5C0.999878 1.63261 1.05258 1.75979 1.14628 1.85355C1.24008 1.94732 1.36728 2 1.49988 2H9.49986C9.89768 2 10.2792 2.15804 10.5605 2.43934C10.8418 2.72064 10.9999 3.10218 10.9999 3.5V13.293L7.85386 10.146C7.75997 10.0521 7.63263 9.99937 7.49986 9.99937C7.36708 9.99937 7.23975 10.0521 7.14586 10.146C7.05197 10.2399 6.99923 10.3672 6.99923 10.5C6.99923 10.6328 7.05197 10.7601 7.14586 10.854L11.1459 14.854Z" fill="#0185ff"/>
</g>
<defs>
<clipPath id="clip0_302_358">
<rect width="16" height="16" fill="white" transform="matrix(-1 0 0 1 16 0)"/>
</clipPath>
</defs>
</svg>
