<svg width="25" height="25" viewBox="0 0 25 25" fill="none" xmlns="http://www.w3.org/2000/svg">
<path d="M2.5 6.25C2.5 5.58696 2.76339 4.95107 3.23223 4.48223C3.70107 4.01339 4.33696 3.75 5 3.75H13.75C14.413 3.75 15.0489 4.01339 15.5178 4.48223C15.9866 4.95107 16.25 5.58696 16.25 6.25V11.25C16.25 11.913 15.9866 12.5489 15.5178 13.0178C15.0489 13.4866 14.413 13.75 13.75 13.75H11.25L7.5 17.5V13.75H5C4.33696 13.75 3.70107 13.4866 3.23223 13.0178C2.76339 12.5489 2.5 11.913 2.5 11.25V6.25Z" fill="white"/>
<path d="M18.7499 8.75V11.25C18.7499 12.5761 18.2231 13.8479 17.2854 14.7855C16.3477 15.7232 15.076 16.25 13.7499 16.25H12.2849L10.0774 18.4588C10.4274 18.645 10.8261 18.75 11.2499 18.75H13.7499L17.4999 22.5V18.75H19.9999C20.6629 18.75 21.2988 18.4866 21.7677 18.0178C22.2365 17.5489 22.4999 16.913 22.4999 16.25V11.25C22.4999 10.587 22.2365 9.95107 21.7677 9.48223C21.2988 9.01339 20.6629 8.75 19.9999 8.75H18.7499Z" fill="white"/>
</svg>
