<svg width="30" height="30" viewBox="0 0 36 36" fill="none" xmlns="http://www.w3.org/2000/svg">
<g filter="url(#filter0_d_2_286)">
<path d="M23.25 11.375C23.25 11.1429 23.3422 10.9204 23.5063 10.7563C23.6704 10.5922 23.8929 10.5 24.125 10.5H25.875C26.1071 10.5 26.3296 10.5922 26.4937 10.7563C26.6578 10.9204 26.75 11.1429 26.75 11.375V13.125C26.75 13.3571 26.6578 13.5796 26.4937 13.7437C26.3296 13.9078 26.1071 14 25.875 14H24.125C23.8929 14 23.6704 13.9078 23.5063 13.7437C23.3422 13.5796 23.25 13.3571 23.25 13.125V11.375Z" fill="#0185ff"/>
<path d="M10.125 0C10.3571 0 10.5796 0.0921872 10.7437 0.256282C10.9078 0.420376 11 0.642936 11 0.875V1.75H25V0.875C25 0.642936 25.0922 0.420376 25.2563 0.256282C25.4204 0.0921872 25.6429 0 25.875 0C26.1071 0 26.3296 0.0921872 26.4937 0.256282C26.6578 0.420376 26.75 0.642936 26.75 0.875V1.75H28.5C29.4283 1.75 30.3185 2.11875 30.9749 2.77513C31.6313 3.4315 32 4.32174 32 5.25V24.5C32 25.4283 31.6313 26.3185 30.9749 26.9749C30.3185 27.6313 29.4283 28 28.5 28H7.5C6.57174 28 5.6815 27.6313 5.02513 26.9749C4.36875 26.3185 4 25.4283 4 24.5V5.25C4 4.32174 4.36875 3.4315 5.02513 2.77513C5.6815 2.11875 6.57174 1.75 7.5 1.75H9.25V0.875C9.25 0.642936 9.34219 0.420376 9.50628 0.256282C9.67038 0.0921872 9.89294 0 10.125 0V0ZM5.75 7V24.5C5.75 24.9641 5.93437 25.4092 6.26256 25.7374C6.59075 26.0656 7.03587 26.25 7.5 26.25H28.5C28.9641 26.25 29.4092 26.0656 29.7374 25.7374C30.0656 25.4092 30.25 24.9641 30.25 24.5V7H5.75Z" fill="#0185ff"/>
</g>
<defs>
<filter id="filter0_d_2_286" x="0" y="0" width="36" height="36" filterUnits="userSpaceOnUse" color-interpolation-filters="sRGB">
<feFlood flood-opacity="0" result="BackgroundImageFix"/>
<feColorMatrix in="SourceAlpha" type="matrix" values="0 0 0 0 0 0 0 0 0 0 0 0 0 0 0 0 0 0 127 0" result="hardAlpha"/>
<feOffset dy="4"/>
<feGaussianBlur stdDeviation="2"/>
<feComposite in2="hardAlpha" operator="out"/>
<feColorMatrix type="matrix" values="0 0 0 0 0 0 0 0 0 0 0 0 0 0 0 0 0 0 0.25 0"/>
<feBlend mode="normal" in2="BackgroundImageFix" result="effect1_dropShadow_2_286"/>
<feBlend mode="normal" in="SourceGraphic" in2="effect1_dropShadow_2_286" result="shape"/>
</filter>
</defs>
</svg>
