<svg width="15" height="15" viewBox="0 0 15 15" fill="none" xmlns="http://www.w3.org/2000/svg">
<path d="M10.4495 12.345L10.0495 9.1425C9.99286 8.68889 9.77241 8.27161 9.42965 7.96914C9.08689 7.66666 8.64544 7.49982 8.1883 7.5H6.8108C6.35388 7.50013 5.91272 7.6671 5.57023 7.96955C5.22773 8.272 5.00746 8.6891 4.9508 9.1425L4.55017 12.345C4.52819 12.5209 4.54388 12.6996 4.59622 12.869C4.64856 13.0384 4.73634 13.1947 4.85374 13.3276C4.97114 13.4605 5.11546 13.5669 5.27713 13.6397C5.4388 13.7125 5.61411 13.7501 5.79142 13.75H9.20892C9.38619 13.75 9.56143 13.7124 9.72302 13.6395C9.88461 13.5666 10.0289 13.4602 10.1462 13.3274C10.2635 13.1945 10.3512 13.0382 10.4035 12.8688C10.4558 12.6994 10.4715 12.5209 10.4495 12.345V12.345Z" stroke="white" stroke-width="1.25" stroke-linecap="round" stroke-linejoin="round"/>
<path d="M7.5 5C8.53553 5 9.375 4.16053 9.375 3.125C9.375 2.08947 8.53553 1.25 7.5 1.25C6.46447 1.25 5.625 2.08947 5.625 3.125C5.625 4.16053 6.46447 5 7.5 5Z" stroke="white" stroke-width="1.25"/>
<path d="M2.5 6.875C3.19036 6.875 3.75 6.31536 3.75 5.625C3.75 4.93464 3.19036 4.375 2.5 4.375C1.80964 4.375 1.25 4.93464 1.25 5.625C1.25 6.31536 1.80964 6.875 2.5 6.875Z" stroke="white" stroke-width="1.25"/>
<path d="M12.5 6.875C13.1904 6.875 13.75 6.31536 13.75 5.625C13.75 4.93464 13.1904 4.375 12.5 4.375C11.8096 4.375 11.25 4.93464 11.25 5.625C11.25 6.31536 11.8096 6.875 12.5 6.875Z" stroke="white" stroke-width="1.25"/>
<path d="M12.5001 8.75H12.6914C12.9873 8.74996 13.2736 8.8549 13.4994 9.04613C13.7252 9.23737 13.8758 9.50251 13.9245 9.79437L14.1326 11.0444C14.1625 11.2235 14.153 11.4069 14.1048 11.582C14.0565 11.757 13.9708 11.9194 13.8534 12.058C13.736 12.1965 13.5899 12.3078 13.4252 12.3842C13.2604 12.4605 13.0811 12.5 12.8995 12.5H10.6251M2.50011 8.75H2.30886C2.01297 8.74996 1.72665 8.8549 1.50085 9.04613C1.27505 9.23737 1.12441 9.50251 1.07574 9.79437L0.867615 11.0444C0.837747 11.2235 0.847253 11.4069 0.89547 11.582C0.943688 11.757 1.02946 11.9194 1.14682 12.058C1.26418 12.1965 1.41031 12.3078 1.57505 12.3842C1.73979 12.4605 1.91918 12.5 2.10074 12.5H4.37511L2.50011 8.75Z" stroke="white" stroke-width="1.25" stroke-linecap="round" stroke-linejoin="round"/>
</svg>
