<svg width="27" height="31" viewBox="0 0 27 31" fill="none" xmlns="http://www.w3.org/2000/svg">
<g filter="url(#filter0_d_2_201)">
<path d="M5.87078 0.294128C5.41133 0.294128 4.9707 0.517818 4.64582 0.915988C4.32094 1.31416 4.13843 1.85419 4.13843 2.41729V12.3254C4.13843 12.8885 4.32094 13.4285 4.64582 13.8267C4.9707 14.2249 5.41133 14.4485 5.87078 14.4485H11.0678V15.864H5.29333C4.98703 15.864 4.69328 16.0131 4.47669 16.2786C4.2601 16.544 4.13843 16.904 4.13843 17.2794V21.5257C4.13843 21.9011 4.2601 22.2612 4.47669 22.5266C4.69328 22.7921 4.98703 22.9412 5.29333 22.9412H21.462C21.7682 22.9412 22.062 22.7921 22.2786 22.5266C22.4952 22.2612 22.6169 21.9011 22.6169 21.5257V17.2794C22.6169 16.904 22.4952 16.544 22.2786 16.2786C22.062 16.0131 21.7682 15.864 21.462 15.864H15.6874V14.4485H20.8845C21.3439 14.4485 21.7846 14.2249 22.1095 13.8267C22.4343 13.4285 22.6169 12.8885 22.6169 12.3254V2.41729C22.6169 1.85419 22.4343 1.31416 22.1095 0.915988C21.7846 0.517818 21.3439 0.294128 20.8845 0.294128L5.87078 0.294128ZM5.87078 1.70957H20.8845C21.0376 1.70957 21.1845 1.78413 21.2928 1.91686C21.4011 2.04958 21.462 2.22959 21.462 2.41729V12.3254C21.462 12.5131 21.4011 12.6931 21.2928 12.8258C21.1845 12.9585 21.0376 13.0331 20.8845 13.0331H5.87078C5.71763 13.0331 5.57075 12.9585 5.46246 12.8258C5.35417 12.6931 5.29333 12.5131 5.29333 12.3254V2.41729C5.29333 2.22959 5.35417 2.04958 5.46246 1.91686C5.57075 1.78413 5.71763 1.70957 5.87078 1.70957ZM17.9972 17.9871C17.9972 17.7994 18.0581 17.6194 18.1664 17.4867C18.2747 17.354 18.4215 17.2794 18.5747 17.2794C18.7278 17.2794 18.8747 17.354 18.983 17.4867C19.0913 17.6194 19.1521 17.7994 19.1521 17.9871C19.1521 18.1748 19.0913 18.3549 18.983 18.4876C18.8747 18.6203 18.7278 18.6949 18.5747 18.6949C18.4215 18.6949 18.2747 18.6203 18.1664 18.4876C18.0581 18.3549 17.9972 18.1748 17.9972 17.9871ZM20.307 17.9871C20.307 17.7994 20.3679 17.6194 20.4762 17.4867C20.5845 17.354 20.7313 17.2794 20.8845 17.2794C21.0376 17.2794 21.1845 17.354 21.2928 17.4867C21.4011 17.6194 21.462 17.7994 21.462 17.9871C21.462 18.1748 21.4011 18.3549 21.2928 18.4876C21.1845 18.6203 21.0376 18.6949 20.8845 18.6949C20.7313 18.6949 20.5845 18.6203 20.4762 18.4876C20.3679 18.3549 20.307 18.1748 20.307 17.9871ZM5.87078 17.2794H11.6453C11.7984 17.2794 11.9453 17.354 12.0536 17.4867C12.1619 17.6194 12.2227 17.7994 12.2227 17.9871C12.2227 18.1748 12.1619 18.3549 12.0536 18.4876C11.9453 18.6203 11.7984 18.6949 11.6453 18.6949H5.87078C5.71763 18.6949 5.57075 18.6203 5.46246 18.4876C5.35417 18.3549 5.29333 18.1748 5.29333 17.9871C5.29333 17.7994 5.35417 17.6194 5.46246 17.4867C5.57075 17.354 5.71763 17.2794 5.87078 17.2794ZM5.29333 20.4642C5.29333 20.3703 5.32375 20.2803 5.37789 20.2139C5.43204 20.1476 5.50548 20.1103 5.58205 20.1103H11.934C12.0106 20.1103 12.084 20.1476 12.1382 20.2139C12.1923 20.2803 12.2227 20.3703 12.2227 20.4642C12.2227 20.558 12.1923 20.648 12.1382 20.7144C12.084 20.7807 12.0106 20.818 11.934 20.818H5.58205C5.50548 20.818 5.43204 20.7807 5.37789 20.7144C5.32375 20.648 5.29333 20.558 5.29333 20.4642Z" fill="white"/>
</g>
<defs>
<filter id="filter0_d_2_201" x="0.138428" y="0.294128" width="26.4784" height="30.6471" filterUnits="userSpaceOnUse" color-interpolation-filters="sRGB">
<feFlood flood-opacity="0" result="BackgroundImageFix"/>
<feColorMatrix in="SourceAlpha" type="matrix" values="0 0 0 0 0 0 0 0 0 0 0 0 0 0 0 0 0 0 127 0" result="hardAlpha"/>
<feOffset dy="4"/>
<feGaussianBlur stdDeviation="2"/>
<feComposite in2="hardAlpha" operator="out"/>
<feColorMatrix type="matrix" values="0 0 0 0 0 0 0 0 0 0 0 0 0 0 0 0 0 0 0.25 0"/>
<feBlend mode="normal" in2="BackgroundImageFix" result="effect1_dropShadow_2_201"/>
<feBlend mode="normal" in="SourceGraphic" in2="effect1_dropShadow_2_201" result="shape"/>
</filter>
</defs>
</svg>
