<svg width="25" height="25" viewBox="0 0 15 15" fill="none" xmlns="http://www.w3.org/2000/svg">
<g clip-path="url(#clip0_121_327)">
<path d="M1.40625 0C1.03329 0 0.675604 0.148158 0.411881 0.411881C0.148158 0.675604 0 1.03329 0 1.40625L0 7.96875C0 8.34171 0.148158 8.6994 0.411881 8.96312C0.675604 9.22684 1.03329 9.375 1.40625 9.375H5.625V10.3125H0.9375C0.68886 10.3125 0.450403 10.4113 0.274587 10.5871C0.0987721 10.7629 0 11.0014 0 11.25L0 14.0625C0 14.3111 0.0987721 14.5496 0.274587 14.7254C0.450403 14.9012 0.68886 15 0.9375 15H14.0625C14.3111 15 14.5496 14.9012 14.7254 14.7254C14.9012 14.5496 15 14.3111 15 14.0625V11.25C15 11.0014 14.9012 10.7629 14.7254 10.5871C14.5496 10.4113 14.3111 10.3125 14.0625 10.3125H9.375V9.375H13.5938C13.9667 9.375 14.3244 9.22684 14.5881 8.96312C14.8518 8.6994 15 8.34171 15 7.96875V1.40625C15 1.03329 14.8518 0.675604 14.5881 0.411881C14.3244 0.148158 13.9667 0 13.5938 0L1.40625 0ZM1.40625 0.9375H13.5938C13.7181 0.9375 13.8373 0.986886 13.9252 1.07479C14.0131 1.1627 14.0625 1.28193 14.0625 1.40625V7.96875C14.0625 8.09307 14.0131 8.2123 13.9252 8.30021C13.8373 8.38811 13.7181 8.4375 13.5938 8.4375H1.40625C1.28193 8.4375 1.1627 8.38811 1.07479 8.30021C0.986886 8.2123 0.9375 8.09307 0.9375 7.96875V1.40625C0.9375 1.28193 0.986886 1.1627 1.07479 1.07479C1.1627 0.986886 1.28193 0.9375 1.40625 0.9375V0.9375ZM11.25 11.7188C11.25 11.5944 11.2994 11.4752 11.3873 11.3873C11.4752 11.2994 11.5944 11.25 11.7188 11.25C11.8431 11.25 11.9623 11.2994 12.0502 11.3873C12.1381 11.4752 12.1875 11.5944 12.1875 11.7188C12.1875 11.8431 12.1381 11.9623 12.0502 12.0502C11.9623 12.1381 11.8431 12.1875 11.7188 12.1875C11.5944 12.1875 11.4752 12.1381 11.3873 12.0502C11.2994 11.9623 11.25 11.8431 11.25 11.7188ZM13.125 11.7188C13.125 11.5944 13.1744 11.4752 13.2623 11.3873C13.3502 11.2994 13.4694 11.25 13.5938 11.25C13.7181 11.25 13.8373 11.2994 13.9252 11.3873C14.0131 11.4752 14.0625 11.5944 14.0625 11.7188C14.0625 11.8431 14.0131 11.9623 13.9252 12.0502C13.8373 12.1381 13.7181 12.1875 13.5938 12.1875C13.4694 12.1875 13.3502 12.1381 13.2623 12.0502C13.1744 11.9623 13.125 11.8431 13.125 11.7188ZM1.40625 11.25H6.09375C6.21807 11.25 6.3373 11.2994 6.42521 11.3873C6.51311 11.4752 6.5625 11.5944 6.5625 11.7188C6.5625 11.8431 6.51311 11.9623 6.42521 12.0502C6.3373 12.1381 6.21807 12.1875 6.09375 12.1875H1.40625C1.28193 12.1875 1.1627 12.1381 1.07479 12.0502C0.986886 11.9623 0.9375 11.8431 0.9375 11.7188C0.9375 11.5944 0.986886 11.4752 1.07479 11.3873C1.1627 11.2994 1.28193 11.25 1.40625 11.25V11.25ZM0.9375 13.3594C0.9375 13.2972 0.962193 13.2376 1.00615 13.1936C1.0501 13.1497 1.10971 13.125 1.17188 13.125H6.32812C6.39029 13.125 6.4499 13.1497 6.49385 13.1936C6.53781 13.2376 6.5625 13.2972 6.5625 13.3594C6.5625 13.4215 6.53781 13.4811 6.49385 13.5251C6.4499 13.5691 6.39029 13.5938 6.32812 13.5938H1.17188C1.10971 13.5938 1.0501 13.5691 1.00615 13.5251C0.962193 13.4811 0.9375 13.4215 0.9375 13.3594Z" fill="white"/>
</g>
<defs>
<clipPath id="clip0_121_327">
<rect width="15" height="15" fill="white"/>
</clipPath>
</defs>
</svg>
