<svg width="38" height="48" viewBox="0 0 38 48" fill="none" xmlns="http://www.w3.org/2000/svg">
<g clip-path="url(#clip0_401_363)" filter="url(#filter0_d_401_363)">
<path d="M11.5877 28.3306C10.9087 27.6517 11.2627 27.8431 9.62515 27.4048C8.88219 27.2056 8.22906 26.8228 7.63844 26.3642L4.0939 35.0548C3.75094 35.8962 4.39156 36.8103 5.29937 36.7759L9.41578 36.6189L12.247 39.6095C12.872 40.2689 13.9689 40.0634 14.3119 39.222L18.3783 29.2517C17.5314 29.7236 16.5916 30.0001 15.6197 30.0001C14.0962 30.0001 12.665 29.4072 11.5877 28.3306V28.3306ZM33.9064 35.0548L30.3619 26.3642C29.7712 26.8236 29.1181 27.2056 28.3752 27.4048C26.7291 27.8455 27.09 27.6533 26.4127 28.3306C25.3353 29.4072 23.9033 30.0001 22.3798 30.0001C21.408 30.0001 20.4681 29.7228 19.6212 29.2517L23.6877 39.222C24.0306 40.0634 25.1283 40.2689 25.7525 39.6095L28.5845 36.6189L32.7009 36.7759C33.6087 36.8103 34.2494 35.8955 33.9064 35.0548V35.0548ZM24.547 26.5626C25.7408 25.3478 25.8775 25.4525 27.5775 24.9892C28.6627 24.6931 29.5111 23.8298 29.8017 22.7251C30.3861 20.5064 30.2345 20.7744 31.8291 19.1509C32.6236 18.3423 32.9337 17.1634 32.6431 16.0587C32.0595 13.8415 32.0587 14.1509 32.6431 11.9314C32.9337 10.8267 32.6236 9.6478 31.8291 8.8392C30.2345 7.21577 30.3861 7.48295 29.8017 5.26499C29.5111 4.1603 28.6627 3.29702 27.5775 3.00092C25.3994 2.40639 25.6619 2.56186 24.0658 0.937642C23.2712 0.129048 22.1127 -0.187358 21.0275 0.108735C18.8502 0.702485 19.1541 0.703267 16.9728 0.108735C15.8877 -0.187358 14.7291 0.128267 13.9345 0.937642C12.34 2.56108 12.6025 2.40639 10.4236 3.00092C9.33844 3.29702 8.49 4.1603 8.19937 5.26499C7.61578 7.48295 7.76656 7.21577 6.17203 8.8392C5.3775 9.6478 5.06656 10.8267 5.35797 11.9314C5.94156 14.147 5.94234 13.8376 5.35797 16.058C5.06734 17.1626 5.3775 18.3415 6.17203 19.1509C7.76656 20.7744 7.615 20.5064 8.19937 22.7251C8.49 23.8298 9.33844 24.6931 10.4236 24.9892C12.172 25.4658 12.3025 25.3908 13.4533 26.5626C14.4869 27.615 16.097 27.8033 17.3392 27.0173C17.8359 26.702 18.4122 26.5345 19.0005 26.5345C19.5889 26.5345 20.1651 26.702 20.6619 27.0173C21.9033 27.8033 23.5134 27.615 24.547 26.5626ZM11.6298 13.747C11.6298 9.60405 14.9298 6.24545 19.0002 6.24545C23.0705 6.24545 26.3705 9.60405 26.3705 13.747C26.3705 17.89 23.0705 21.2486 19.0002 21.2486C14.9298 21.2486 11.6298 17.89 11.6298 13.747V13.747Z" fill="#0185ff"/>
</g>
<defs>
<filter id="filter0_d_401_363" x="0" y="0" width="38" height="48" filterUnits="userSpaceOnUse" color-interpolation-filters="sRGB">
<feFlood flood-opacity="0" result="BackgroundImageFix"/>
<feColorMatrix in="SourceAlpha" type="matrix" values="0 0 0 0 0 0 0 0 0 0 0 0 0 0 0 0 0 0 127 0" result="hardAlpha"/>
<feOffset dy="4"/>
<feGaussianBlur stdDeviation="2"/>
<feComposite in2="hardAlpha" operator="out"/>
<feColorMatrix type="matrix" values="0 0 0 0 0 0 0 0 0 0 0 0 0 0 0 0 0 0 0.25 0"/>
<feBlend mode="normal" in2="BackgroundImageFix" result="effect1_dropShadow_401_363"/>
<feBlend mode="normal" in="SourceGraphic" in2="effect1_dropShadow_401_363" result="shape"/>
</filter>
<clipPath id="clip0_401_363">
<rect width="30" height="40" fill="white" transform="translate(4)"/>
</clipPath>
</defs>
</svg>
