<svg width="21" height="20" viewBox="0 0 21 20" fill="none" xmlns="http://www.w3.org/2000/svg">
<path d="M16.75 0C17.783 0 18.6662 0.366753 19.3997 1.10026C20.1332 1.83377 20.5 2.71701 20.5 3.75V16.25C20.5 17.283 20.1332 18.1662 19.3997 18.8997C18.6662 19.6332 17.783 20 16.75 20H14.3021V12.2526H16.8932L17.2839 9.23177H14.3021V7.30469C14.3021 6.81858 14.4041 6.45399 14.6081 6.21094C14.8121 5.96788 15.2092 5.84635 15.7995 5.84635L17.388 5.83333V3.13802C16.8411 3.0599 16.0686 3.02083 15.0703 3.02083C13.8898 3.02083 12.9457 3.36806 12.2383 4.0625C11.5308 4.75694 11.1771 5.73785 11.1771 7.00521V9.23177H8.57292V12.2526H11.1771V20H4.25C3.21701 20 2.33377 19.6332 1.60026 18.8997C0.866753 18.1662 0.5 17.283 0.5 16.25V3.75C0.5 2.71701 0.866753 1.83377 1.60026 1.10026C2.33377 0.366753 3.21701 0 4.25 0H16.75Z" fill="white"/>
</svg>
