<svg width="25" height="25" viewBox="0 0 20 20" fill="none" xmlns="http://www.w3.org/2000/svg">
<path d="M1.78242 3.11523L2.03125 3.17383V5.45898C1.75781 5.62109 1.5625 5.91016 1.5625 6.25C1.5625 6.57715 1.74316 6.85078 1.99687 7.02148L1.38672 9.45312C1.31836 9.72266 1.46992 10 1.68477 10H3.31562C3.53047 10 3.68184 9.72168 3.61348 9.48828L3.00312 7.02344C3.25703 6.85156 3.4375 6.57812 3.4375 6.25C3.4375 5.9082 3.24219 5.62031 2.96875 5.45898V3.40352L5 3.8918L5.00004 6.25C5.00004 9.01367 7.23637 11.25 10 11.25C12.7637 11.25 14.9649 9.01367 14.9649 6.25L15 3.89141L18.2129 3.11523C18.9258 2.94434 18.9258 2.06055 18.2129 1.88477L10.7754 0.0878906C10.2676 -0.0292969 9.73555 -0.0292969 9.22734 0.0878906L1.78203 1.88477C1.07422 2.05586 1.07422 2.94453 1.78242 3.11523ZM14.0312 12.2188L10 16.25L5.96875 12.2188C3.23711 13.0898 1.25 15.625 1.25 18.6445C1.25 19.3945 1.85664 20 2.6043 20H17.3973C18.1445 20 18.75 19.3945 18.75 18.6445C18.75 15.625 16.7617 13.0898 14.0312 12.2188Z" fill="white"/>
</svg>
