<svg width="30" height="30" viewBox="0 0 30 30" fill="none" xmlns="http://www.w3.org/2000/svg">
<path d="M27.6562 24.375C27.6562 24.748 27.5081 25.1056 27.2444 25.3694C26.9806 25.6331 26.623 25.7812 26.25 25.7812H3.75C3.37704 25.7812 3.01935 25.6331 2.75563 25.3694C2.49191 25.1056 2.34375 24.748 2.34375 24.375V5.625C2.34375 5.25204 2.49191 4.89435 2.75563 4.63063C3.01935 4.36691 3.37704 4.21875 3.75 4.21875C4.12296 4.21875 4.48065 4.36691 4.74437 4.63063C5.00809 4.89435 5.15625 5.25204 5.15625 5.625V17.2266L10.2539 12.1289C10.3846 11.9978 10.5398 11.8938 10.7107 11.8228C10.8817 11.7518 11.0649 11.7153 11.25 11.7153C11.4351 11.7153 11.6183 11.7518 11.7893 11.8228C11.9602 11.8938 12.1154 11.9978 12.2461 12.1289L15 14.8828L20.9766 8.90625H19.6875C19.3145 8.90625 18.9569 8.75809 18.6931 8.49437C18.4294 8.23065 18.2812 7.87296 18.2812 7.5C18.2812 7.12704 18.4294 6.76935 18.6931 6.50563C18.9569 6.24191 19.3145 6.09375 19.6875 6.09375H24.375C24.748 6.09375 25.1056 6.24191 25.3694 6.50563C25.6331 6.76935 25.7812 7.12704 25.7812 7.5V12.1875C25.7812 12.5605 25.6331 12.9181 25.3694 13.1819C25.1056 13.4456 24.748 13.5938 24.375 13.5938C24.002 13.5938 23.6444 13.4456 23.3806 13.1819C23.1169 12.9181 22.9688 12.5605 22.9688 12.1875V10.8984L15.9961 17.8711C15.8654 18.0022 15.7102 18.1062 15.5393 18.1772C15.3683 18.2482 15.1851 18.2847 15 18.2847C14.8149 18.2847 14.6317 18.2482 14.4607 18.1772C14.2898 18.1062 14.1346 18.0022 14.0039 17.8711L11.25 15.1172L5.15625 21.2109V22.9688H26.25C26.623 22.9688 26.9806 23.1169 27.2444 23.3806C27.5081 23.6444 27.6562 24.002 27.6562 24.375Z" fill="white"/>
</svg>
