<svg width="27" height="28" viewBox="0 0 27 28" fill="none" xmlns="http://www.w3.org/2000/svg">
<g filter="url(#filter0_d_2_216)">
<path d="M20.8124 3.64706H5.56771C5.20015 3.64706 4.84764 3.79619 4.58774 4.06164C4.32784 4.32708 4.18182 4.68711 4.18182 5.06251V17.8015C4.18182 18.1769 4.32784 18.5369 4.58774 18.8023C4.84764 19.0678 5.20015 19.2169 5.56771 19.2169H6.72839C6.8596 19.2173 6.98815 19.1791 7.09872 19.107C7.20929 19.0348 7.29722 18.9317 7.35203 18.81C7.69108 18.0853 8.22403 17.4734 8.88926 17.045C9.55449 16.6167 10.3248 16.3894 11.1112 16.3894C11.8976 16.3894 12.668 16.6167 13.3332 17.045C13.9985 17.4734 14.5314 18.0853 14.8705 18.81C14.9253 18.9317 15.0132 19.0348 15.1238 19.107C15.2343 19.1791 15.3629 19.2173 15.4941 19.2169H20.8124C21.18 19.2169 21.5325 19.0678 21.7924 18.8023C22.0523 18.5369 22.1983 18.1769 22.1983 17.8015V5.06251C22.1983 4.68711 22.0523 4.32708 21.7924 4.06164C21.5325 3.79619 21.18 3.64706 20.8124 3.64706ZM9.03242 12.8474C9.03242 12.4275 9.15434 12.017 9.38276 11.6679C9.61119 11.3187 9.93586 11.0466 10.3157 10.8859C10.6956 10.7252 11.1135 10.6831 11.5168 10.7651C11.9201 10.847 12.2905 11.0492 12.5812 11.3461C12.8719 11.6431 13.0699 12.0214 13.1501 12.4332C13.2303 12.8451 13.1892 13.272 13.0318 13.6599C12.8745 14.0479 12.608 14.3795 12.2662 14.6128C11.9243 14.8461 11.5224 14.9706 11.1112 14.9706C10.5606 14.9683 10.0332 14.7438 9.64381 14.3462C9.25445 13.9485 9.0347 13.4098 9.03242 12.8474ZM20.8124 17.8015H15.9099C15.3315 16.7852 14.4604 15.9759 13.4153 15.4837C13.9398 15.0067 14.31 14.3781 14.4768 13.6813C14.6436 12.9845 14.5991 12.2523 14.3493 11.5819C14.0994 10.9116 13.6559 10.3346 13.0776 9.92743C12.4994 9.52031 11.8136 9.30231 11.1112 9.30231C10.4089 9.30231 9.72313 9.52031 9.14485 9.92743C8.56658 10.3346 8.12311 10.9116 7.87323 11.5819C7.62335 12.2523 7.57886 12.9845 7.74566 13.6813C7.91246 14.3781 8.28267 15.0067 8.80721 15.4837C7.76208 15.9759 6.89098 16.7852 6.31262 17.8015H5.56771V5.06251H20.8124V17.8015ZM6.95359 8.60111V7.18567C6.95359 6.99797 7.0266 6.81796 7.15655 6.68523C7.2865 6.55251 7.46275 6.47795 7.64653 6.47795H18.7336C18.9174 6.47795 19.0936 6.55251 19.2236 6.68523C19.3535 6.81796 19.4265 6.99797 19.4265 7.18567V15.6783C19.4265 15.866 19.3535 16.046 19.2236 16.1787C19.0936 16.3115 18.9174 16.386 18.7336 16.386H17.3477C17.1639 16.386 16.9877 16.3115 16.8577 16.1787C16.7278 16.046 16.6548 15.866 16.6548 15.6783C16.6548 15.4906 16.7278 15.3106 16.8577 15.1779C16.9877 15.0452 17.1639 14.9706 17.3477 14.9706H18.0407V7.89339H8.33948V8.60111C8.33948 8.78881 8.26647 8.96882 8.13652 9.10154C8.00657 9.23426 7.83031 9.30883 7.64653 9.30883C7.46275 9.30883 7.2865 9.23426 7.15655 9.10154C7.0266 8.96882 6.95359 8.78881 6.95359 8.60111Z" fill="white"/>
</g>
<defs>
<filter id="filter0_d_2_216" x="-1.83398" y="0.558838" width="30.1742" height="30.6471" filterUnits="userSpaceOnUse" color-interpolation-filters="sRGB">
<feFlood flood-opacity="0" result="BackgroundImageFix"/>
<feColorMatrix in="SourceAlpha" type="matrix" values="0 0 0 0 0 0 0 0 0 0 0 0 0 0 0 0 0 0 127 0" result="hardAlpha"/>
<feOffset dy="4"/>
<feGaussianBlur stdDeviation="2"/>
<feComposite in2="hardAlpha" operator="out"/>
<feColorMatrix type="matrix" values="0 0 0 0 0 0 0 0 0 0 0 0 0 0 0 0 0 0 0.25 0"/>
<feBlend mode="normal" in2="BackgroundImageFix" result="effect1_dropShadow_2_216"/>
<feBlend mode="normal" in="SourceGraphic" in2="effect1_dropShadow_2_216" result="shape"/>
</filter>
</defs>
</svg>
