<svg width="24" height="24" viewBox="0 0 24 24" fill="none" xmlns="http://www.w3.org/2000/svg">
<path d="M12 16H15.889L17.444 18.5H19M12 8.5V11M12 16V11M12 11H15.889M12 6.5C11.4696 6.5 10.9609 6.28929 10.5858 5.91421C10.2107 5.53914 10 5.03043 10 4.5C10 3.96957 10.2107 3.46086 10.5858 3.08579C10.9609 2.71071 11.4696 2.5 12 2.5C12.5304 2.5 13.0391 2.71071 13.4142 3.08579C13.7893 3.46086 14 3.96957 14 4.5C14 5.03043 13.7893 5.53914 13.4142 5.91421C13.0391 6.28929 12.5304 6.5 12 6.5Z" stroke="white" stroke-width="1.5" stroke-linecap="round" stroke-linejoin="round"/>
<path d="M14.882 19.516C14.3633 20.1987 13.6921 20.7506 12.9221 21.1278C12.1522 21.5049 11.3047 21.6968 10.4473 21.6882C9.58997 21.6795 8.74652 21.4706 7.9843 21.078C7.22208 20.6854 6.5622 20.12 6.05735 19.427C5.5525 18.734 5.21665 17.9326 5.07662 17.0867C4.9366 16.2408 4.99627 15.3739 5.25087 14.5552C5.50548 13.7365 5.94796 12.9887 6.54301 12.3714C7.13805 11.7541 7.86917 11.2845 8.67799 11" stroke="white" stroke-width="1.5" stroke-linecap="round" stroke-linejoin="round"/>
</svg>
