<svg width="24" height="24" viewBox="0 0 24 24" fill="none" xmlns="http://www.w3.org/2000/svg">
<path d="M20 13.5V3C20 2.73478 19.8946 2.48043 19.7071 2.29289C19.5196 2.10536 19.2652 2 19 2H5C4.73478 2 4.48043 2.10536 4.29289 2.29289C4.10536 2.48043 4 2.73478 4 3V21C4 21.2652 4.10536 21.5196 4.29289 21.7071C4.48043 21.8946 4.73478 22 5 22H10.5M8.5 6H15.5M8.5 10H15.5M8.5 14H11.5" stroke="#0084ff" stroke-width="2" stroke-linecap="round" stroke-linejoin="round"/>
<path d="M19.5 22L17.7675 20.2675M17.7675 20.2675C18.0044 20.0364 18.1931 19.7606 18.3227 19.4561C18.4522 19.1515 18.52 18.8242 18.5221 18.4933C18.5241 18.1623 18.4605 17.8342 18.3348 17.5281C18.209 17.2219 18.0238 16.9437 17.7897 16.7097C17.5557 16.4757 17.2775 16.2905 16.9713 16.1648C16.6651 16.0391 16.337 15.9755 16.0061 15.9777C15.6751 15.9798 15.3479 16.0476 15.0433 16.1772C14.7388 16.3067 14.463 16.4955 14.232 16.7325C13.7666 17.2021 13.5062 17.8369 13.5077 18.4981C13.5092 19.1592 13.7726 19.7928 14.2402 20.2603C14.7077 20.7277 15.3414 20.9909 16.0026 20.9923C16.6637 20.9936 17.2985 20.733 17.768 20.2675H17.7675Z" stroke="#0084ff" stroke-width="2" stroke-linecap="round" stroke-linejoin="round"/>
</svg>
