<svg width="24" height="24" viewBox="0 0 24 24" fill="none" xmlns="http://www.w3.org/2000/svg">
<path d="M6.75 6.375C6.54687 6.375 6.37109 6.30078 6.22266 6.15234C6.07422 6.00391 6 5.82813 6 5.625C6 5.44531 5.94531 5.28516 5.83594 5.14453C5.72656 5.00391 5.59766 4.88672 5.44922 4.79297C5.17578 4.60547 4.89844 4.41797 4.61719 4.23047C4.33594 4.04297 4.07031 3.83984 3.82031 3.62109C3.57031 3.40234 3.375 3.14844 3.23438 2.85938C3.09375 2.57031 3.01563 2.24219 3 1.875C3 1.67187 3.07422 1.49609 3.22266 1.34766C3.37109 1.19922 3.54687 1.125 3.75 1.125C3.95313 1.125 4.12891 1.19922 4.27734 1.34766C4.42578 1.49609 4.5 1.67187 4.5 1.875C4.5 2.05469 4.55469 2.21484 4.66406 2.35547C4.77344 2.49609 4.90234 2.61328 5.05078 2.70703C5.31641 2.89453 5.59375 3.08203 5.88281 3.26953C6.17187 3.45703 6.4375 3.66016 6.67969 3.87891C6.92187 4.09766 7.11719 4.35156 7.26562 4.64062C7.41406 4.92969 7.49219 5.25781 7.5 5.625C7.5 5.82813 7.42578 6.00391 7.27734 6.15234C7.12891 6.30078 6.95313 6.375 6.75 6.375ZM12 6.375C11.7969 6.375 11.6211 6.30078 11.4727 6.15234C11.3242 6.00391 11.25 5.82813 11.25 5.625C11.25 5.44531 11.1953 5.28516 11.0859 5.14453C10.9766 5.00391 10.8477 4.88672 10.6992 4.79297C10.4258 4.60547 10.1484 4.41797 9.86719 4.23047C9.58594 4.04297 9.32031 3.83984 9.07031 3.62109C8.82031 3.40234 8.625 3.14844 8.48438 2.85938C8.34375 2.57031 8.26563 2.24219 8.25 1.875C8.25 1.67187 8.32422 1.49609 8.47266 1.34766C8.62109 1.19922 8.79687 1.125 9 1.125C9.20313 1.125 9.37891 1.19922 9.52734 1.34766C9.67578 1.49609 9.75 1.67187 9.75 1.875C9.75 2.05469 9.80469 2.21484 9.91406 2.35547C10.0234 2.49609 10.1523 2.61328 10.3008 2.70703C10.5664 2.89453 10.8438 3.08203 11.1328 3.26953C11.4219 3.45703 11.6875 3.66016 11.9297 3.87891C12.1719 4.09766 12.3672 4.35156 12.5156 4.64062C12.6641 4.92969 12.7422 5.25781 12.75 5.625C12.75 5.82813 12.6758 6.00391 12.5273 6.15234C12.3789 6.30078 12.2031 6.375 12 6.375ZM17.25 6.375C17.0469 6.375 16.8711 6.30078 16.7227 6.15234C16.5742 6.00391 16.5 5.82813 16.5 5.625C16.5 5.44531 16.4453 5.28516 16.3359 5.14453C16.2266 5.00391 16.0977 4.88672 15.9492 4.79297C15.6758 4.60547 15.3984 4.41797 15.1172 4.23047C14.8359 4.04297 14.5703 3.83984 14.3203 3.62109C14.0703 3.40234 13.875 3.14844 13.7344 2.85938C13.5938 2.57031 13.5156 2.24219 13.5 1.875C13.5 1.67187 13.5742 1.49609 13.7227 1.34766C13.8711 1.19922 14.0469 1.125 14.25 1.125C14.4531 1.125 14.6289 1.19922 14.7773 1.34766C14.9258 1.49609 15 1.67187 15 1.875C15 2.05469 15.0547 2.21484 15.1641 2.35547C15.2734 2.49609 15.4023 2.61328 15.5508 2.70703C15.8164 2.89453 16.0938 3.08203 16.3828 3.26953C16.6719 3.45703 16.9375 3.66016 17.1797 3.87891C17.4219 4.09766 17.6172 4.35156 17.7656 4.64062C17.9141 4.92969 17.9922 5.25781 18 5.625C18 5.82813 17.9258 6.00391 17.7773 6.15234C17.6289 6.30078 17.4531 6.375 17.25 6.375ZM18.8086 15C18.5508 15.5859 18.2305 16.125 17.8477 16.6172C17.4648 17.1094 17.0352 17.5703 16.5586 18H21.75V19.5C21.75 19.8516 21.6953 20.2031 21.5859 20.5547C21.4766 20.9062 21.3203 21.2266 21.1172 21.5156C20.9141 21.8047 20.6602 22.0391 20.3555 22.2188C20.0508 22.3984 19.7031 22.4922 19.3125 22.5H2.4375C2.04688 22.5 1.70313 22.4102 1.40625 22.2305C1.10937 22.0508 0.855469 21.8164 0.644531 21.5273C0.433594 21.2383 0.273437 20.918 0.164062 20.5664C0.0546875 20.2148 0 19.8594 0 19.5V18H4.44141C3.51953 17.1953 2.80078 16.2617 2.28516 15.1992C1.76953 14.1367 1.50781 12.9883 1.5 11.7539V7.5H20.3086C20.8242 7.5 21.3047 7.59766 21.75 7.79297C22.1953 7.98828 22.5859 8.25781 22.9219 8.60156C23.2578 8.94531 23.5195 9.34375 23.707 9.79688C23.8945 10.25 23.9922 10.7344 24 11.25C24 11.7578 23.9062 12.2383 23.7188 12.6914C23.5312 13.1445 23.2695 13.543 22.9336 13.8867C22.5977 14.2305 22.207 14.5 21.7617 14.6953C21.3164 14.8906 20.832 14.9922 20.3086 15H18.8086ZM19.5 9C19.5 9.32812 19.5039 9.65625 19.5117 9.98438C19.5195 10.3125 19.5234 10.6445 19.5234 10.9805C19.5234 11.4102 19.5117 11.8359 19.4883 12.2578C19.4648 12.6797 19.4023 13.0937 19.3008 13.5H20.3086C20.6133 13.5 20.8984 13.4414 21.1641 13.3242C21.4297 13.207 21.6641 13.043 21.8672 12.832C22.0703 12.6211 22.2227 12.3828 22.3242 12.1172C22.4258 11.8516 22.4844 11.5625 22.5 11.25C22.5 10.9453 22.4453 10.6563 22.3359 10.3828C22.2266 10.1094 22.0703 9.87109 21.8672 9.66797C21.6641 9.46484 21.4336 9.30469 21.1758 9.1875C20.918 9.07031 20.6289 9.00781 20.3086 9H19.5ZM3 11.7539C3 12.4414 3.10156 13.1016 3.30469 13.7344C3.50781 14.3672 3.80078 14.9531 4.18359 15.4922C4.56641 16.0312 5.01172 16.5117 5.51953 16.9336C6.02734 17.3555 6.59375 17.7109 7.21875 18H13.7812C14.3984 17.7188 14.9648 17.3672 15.4805 16.9453C15.9961 16.5234 16.4414 16.0391 16.8164 15.4922C17.1914 14.9453 17.4805 14.3594 17.6836 13.7344C17.8867 13.1094 17.9922 12.4492 18 11.7539V9H3V11.7539ZM19.3125 21C19.4766 21 19.6172 20.9453 19.7344 20.8359C19.8516 20.7266 19.9492 20.5977 20.0273 20.4492C20.1055 20.3008 20.1602 20.1367 20.1914 19.957C20.2227 19.7773 20.2422 19.625 20.25 19.5H1.5C1.5 19.6328 1.51562 19.7852 1.54688 19.957C1.57813 20.1289 1.63672 20.2891 1.72266 20.4375C1.80859 20.5859 1.90625 20.7188 2.01562 20.8359C2.125 20.9531 2.26562 21.0078 2.4375 21H19.3125Z" fill="white"/>
</svg>
