<svg width="24" height="24" viewBox="0 0 24 24" fill="none" xmlns="http://www.w3.org/2000/svg">
<g clip-path="url(#clip0_3_12)">
<path d="M22.5 7.5V10.5H21V21.75C21 22.0156 20.9883 22.2813 20.9648 22.5469C20.9414 22.8125 20.8789 23.0547 20.7773 23.2734C20.6758 23.4922 20.5273 23.668 20.332 23.8008C20.1367 23.9336 19.8594 24 19.5 24C19.3047 24 19.0977 24.0039 18.8789 24.0117C18.6602 24.0195 18.4375 24.0156 18.2109 24C17.9844 23.9844 17.7695 23.9531 17.5664 23.9062C17.3633 23.8594 17.1797 23.7773 17.0156 23.6602C16.8516 23.543 16.7266 23.3945 16.6406 23.2148C16.5547 23.0352 16.5078 22.7969 16.5 22.5H6C6 22.7109 5.96094 22.9063 5.88281 23.0859C5.80469 23.2656 5.69922 23.4219 5.56641 23.5547C5.43359 23.6875 5.27344 23.7969 5.08594 23.8828C4.89844 23.9688 4.70313 24.0078 4.5 24C3.96094 24 3.5 23.9961 3.11719 23.9883C2.73437 23.9805 2.42578 23.9141 2.19141 23.7891C1.95703 23.6641 1.78125 23.4453 1.66406 23.1328C1.54688 22.8203 1.49219 22.3594 1.5 21.75V10.5H0V7.5H1.5V3.75C1.5 3.4375 1.55859 3.14453 1.67578 2.87109C1.79297 2.59766 1.95312 2.35938 2.15625 2.15625C2.35938 1.95312 2.59766 1.79297 2.87109 1.67578C3.14453 1.55859 3.4375 1.5 3.75 1.5H18.75C19.0625 1.5 19.3555 1.55859 19.6289 1.67578C19.9023 1.79297 20.1406 1.95312 20.3438 2.15625C20.5469 2.35938 20.707 2.59766 20.8242 2.87109C20.9414 3.14453 21 3.4375 21 3.75V7.5H22.5ZM19.5 15H3V18H4.5V17.5312C4.5 17.3594 4.51562 17.1953 4.54688 17.0391C4.57813 16.8828 4.64844 16.7539 4.75781 16.6523C4.86719 16.5508 5.03125 16.5 5.25 16.5C5.46875 16.5 5.62891 16.5508 5.73047 16.6523C5.83203 16.7539 5.90625 16.8789 5.95312 17.0273C6 17.1758 6.01953 17.3398 6.01172 17.5195C6.00391 17.6992 6 17.8594 6 18H16.5V17.5312C16.5 17.3594 16.5156 17.1953 16.5469 17.0391C16.5781 16.8828 16.6484 16.7539 16.7578 16.6523C16.8672 16.5508 17.0313 16.5 17.25 16.5C17.4687 16.5 17.6289 16.5508 17.7305 16.6523C17.832 16.7539 17.9062 16.8789 17.9531 17.0273C18 17.1758 18.0195 17.3398 18.0117 17.5195C18.0039 17.6992 18 17.8594 18 18H19.5V15ZM10.5 13.5V7.5H3V13.5H10.5ZM19.5 7.5H12V13.5H19.5V7.5ZM3.75 3C3.54687 3 3.37109 3.07422 3.22266 3.22266C3.07422 3.37109 3 3.54687 3 3.75V6H19.5V3.75C19.5 3.54687 19.4258 3.37109 19.2773 3.22266C19.1289 3.07422 18.9531 3 18.75 3H3.75ZM19.5 21V19.5H3V21H19.5Z" fill="white"/>
</g>
<defs>
<clipPath id="clip0_3_12">
<rect width="24" height="24" fill="white"/>
</clipPath>
</defs>
</svg>
