<svg width="21" height="20" viewBox="0 0 21 20" fill="none" xmlns="http://www.w3.org/2000/svg">
<g clip-path="url(#clip0_68_215)">
<path d="M10.5 0C7.78185 0 7.4431 0.013125 6.37935 0.058125C5.31122 0.110625 4.58872 0.27625 3.95122 0.52375C3.28401 0.775638 2.67976 1.17001 2.1806 1.67938C1.66981 2.17737 1.27522 2.78196 1.02497 3.45C0.777471 4.0875 0.611846 4.81 0.559346 5.87812C0.511221 6.9425 0.501221 7.28063 0.501221 9.99875C0.501221 12.7169 0.514346 13.0556 0.559346 14.1194C0.611846 15.1844 0.777471 15.91 1.02497 16.5475C1.27686 17.2147 1.67123 17.819 2.1806 18.3181C2.67859 18.8289 3.28318 19.2235 3.95122 19.4738C4.58872 19.7181 5.31435 19.8869 6.37935 19.9394C7.44372 19.9875 7.78185 19.9975 10.5 19.9975C13.2181 19.9975 13.5568 19.9844 14.6206 19.9394C15.6856 19.8869 16.4112 19.7175 17.0487 19.4738C17.7159 19.2219 18.3202 18.8275 18.8193 18.3181C19.3308 17.8207 19.7255 17.2159 19.975 16.5475C20.2193 15.91 20.3881 15.1844 20.4406 14.1194C20.4887 13.055 20.4987 12.7169 20.4987 9.99875C20.4987 7.28063 20.4856 6.94187 20.4406 5.87812C20.3881 4.81312 20.2187 4.08375 19.975 3.45C19.7231 2.78279 19.3287 2.17854 18.8193 1.67938C18.3219 1.16793 17.7171 0.773237 17.0487 0.52375C16.4112 0.27625 15.6856 0.110625 14.6206 0.058125C13.5562 0.01 13.2181 0 10.5 0ZM10.5 1.8C13.1693 1.8 13.4881 1.81313 14.5431 1.85812C15.5162 1.90375 16.0462 2.06625 16.3981 2.20375C16.8331 2.36433 17.2268 2.61991 17.5506 2.95187C17.882 3.27427 18.1366 3.66709 18.2956 4.10125C18.4331 4.45312 18.5956 4.98312 18.6412 5.95625C18.6862 7.01125 18.6993 7.33062 18.6993 9.99937C18.6993 12.6681 18.6862 12.9875 18.6375 14.0425C18.585 15.0156 18.4225 15.5456 18.2856 15.8975C18.0962 16.3669 17.885 16.695 17.5362 17.05C17.2114 17.3799 16.8179 17.6342 16.3837 17.795C16.0362 17.9325 15.4987 18.095 14.5218 18.1406C13.4612 18.1856 13.1487 18.1987 10.4725 18.1987C7.79622 18.1987 7.48435 18.1856 6.42247 18.1369C5.44935 18.0844 4.91247 17.9219 4.5606 17.785C4.0856 17.5956 3.75997 17.3844 3.41122 17.0356C3.05935 16.6838 2.8356 16.3487 2.6631 15.8831C2.5231 15.5356 2.3631 14.9981 2.31122 14.0212C2.2756 12.9731 2.25872 12.6481 2.25872 9.98438C2.25872 7.32188 2.2756 6.99625 2.31122 5.935C2.3631 4.95813 2.5231 4.42188 2.6631 4.07312C2.8356 3.5975 3.05997 3.2725 3.41122 2.92062C3.75935 2.5725 4.0856 2.3475 4.5606 2.17125C4.91247 2.03437 5.43622 1.87188 6.4131 1.82313C7.47372 1.785 7.78622 1.77125 10.4587 1.77125L10.5 1.8ZM10.5 4.86688C9.82581 4.86663 9.15821 4.99923 8.53532 5.25711C7.91243 5.51499 7.34646 5.89308 6.86975 6.36978C6.39305 6.84649 6.01496 7.41246 5.75708 8.03535C5.4992 8.65824 5.3666 9.32584 5.36685 10C5.3666 10.6742 5.4992 11.3418 5.75708 11.9647C6.01496 12.5875 6.39305 13.1535 6.86975 13.6302C7.34646 14.1069 7.91243 14.485 8.53532 14.7429C9.15821 15.0008 9.82581 15.1334 10.5 15.1331C11.1741 15.1334 11.8417 15.0008 12.4646 14.7429C13.0875 14.485 13.6535 14.1069 14.1302 13.6302C14.6069 13.1535 14.985 12.5875 15.2429 11.9647C15.5007 11.3418 15.6333 10.6742 15.6331 10C15.6333 9.32584 15.5007 8.65824 15.2429 8.03535C14.985 7.41246 14.6069 6.84649 14.1302 6.36978C13.6535 5.89308 13.0875 5.51499 12.4646 5.25711C11.8417 4.99923 11.1741 4.86663 10.5 4.86688ZM10.5 13.3331C8.65747 13.3331 7.16685 11.8425 7.16685 10C7.16685 8.1575 8.65747 6.66687 10.5 6.66687C12.3425 6.66687 13.8331 8.1575 13.8331 10C13.8331 11.8425 12.3425 13.3331 10.5 13.3331ZM17.04 4.66188C17.0396 4.98042 16.9129 5.2858 16.6875 5.51092C16.4621 5.73605 16.1566 5.8625 15.8381 5.8625C15.6806 5.8625 15.5246 5.83148 15.3791 5.7712C15.2336 5.71093 15.1014 5.62258 14.99 5.51121C14.8786 5.39984 14.7903 5.26762 14.73 5.12211C14.6697 4.97659 14.6387 4.82063 14.6387 4.66313C14.6387 4.50562 14.6697 4.34966 14.73 4.20414C14.7903 4.05863 14.8786 3.92641 14.99 3.81504C15.1014 3.70367 15.2336 3.61532 15.3791 3.55505C15.5246 3.49477 15.6806 3.46375 15.8381 3.46375C16.4987 3.46375 17.04 4.00125 17.04 4.66188Z" fill="white"/>
</g>
<defs>
<clipPath id="clip0_68_215">
<rect width="20" height="20" fill="white" transform="translate(0.5)"/>
</clipPath>
</defs>
</svg>
