<svg width="21" height="20" viewBox="0 0 21 20" fill="none" xmlns="http://www.w3.org/2000/svg">
<path d="M3.58594 16.7448H6.59375V7.70833H3.58594V16.7448ZM6.78906 4.92188C6.78038 4.47049 6.62413 4.09722 6.32031 3.80208C6.01649 3.50694 5.61285 3.35938 5.10938 3.35938C4.6059 3.35938 4.19575 3.50694 3.87891 3.80208C3.56207 4.09722 3.40365 4.47049 3.40365 4.92188C3.40365 5.36458 3.55773 5.73568 3.86589 6.03516C4.17405 6.33464 4.57552 6.48438 5.07031 6.48438H5.08333C5.59549 6.48438 6.00781 6.33464 6.32031 6.03516C6.63281 5.73568 6.78906 5.36458 6.78906 4.92188ZM14.4062 16.7448H17.4141V11.5625C17.4141 10.2257 17.0972 9.21441 16.4635 8.52865C15.8299 7.84288 14.9922 7.5 13.9505 7.5C12.77 7.5 11.8628 8.00781 11.2292 9.02344H11.2552V7.70833H8.2474C8.27344 8.28125 8.27344 11.2934 8.2474 16.7448H11.2552V11.6927C11.2552 11.3628 11.2856 11.1198 11.3464 10.9635C11.4766 10.6597 11.6719 10.4015 11.9323 10.1888C12.1927 9.97613 12.5139 9.86979 12.8958 9.86979C13.9028 9.86979 14.4062 10.5512 14.4062 11.9141V16.7448ZM20.5 3.75V16.25C20.5 17.283 20.1332 18.1662 19.3997 18.8997C18.6662 19.6332 17.783 20 16.75 20H4.25C3.21701 20 2.33377 19.6332 1.60026 18.8997C0.866753 18.1662 0.5 17.283 0.5 16.25V3.75C0.5 2.71701 0.866753 1.83377 1.60026 1.10026C2.33377 0.366753 3.21701 0 4.25 0H16.75C17.783 0 18.6662 0.366753 19.3997 1.10026C20.1332 1.83377 20.5 2.71701 20.5 3.75Z" fill="white"/>
</svg>
