<svg width="30" height="30" viewBox="0 0 30 30" fill="none" xmlns="http://www.w3.org/2000/svg">
<path d="M15 20C19.8325 20 23.75 16.0825 23.75 11.25C23.75 6.41751 19.8325 2.5 15 2.5C10.1675 2.5 6.25 6.41751 6.25 11.25C6.25 16.0825 10.1675 20 15 20Z" stroke="#0084FF" stroke-width="2" stroke-linecap="round" stroke-linejoin="round"/>
<path d="M8.75 17.5V25.2925C8.75017 25.5136 8.80897 25.7306 8.92039 25.9215C9.03181 26.1125 9.19186 26.2704 9.38424 26.3793C9.57662 26.4882 9.79443 26.5442 10.0155 26.5414C10.2365 26.5387 10.4529 26.4774 10.6425 26.3637L14.3575 24.1363C14.5516 24.0199 14.7737 23.9585 15 23.9585C15.2263 23.9585 15.4484 24.0199 15.6425 24.1363L19.3575 26.3637C19.5471 26.4774 19.7635 26.5387 19.9845 26.5414C20.2056 26.5442 20.4234 26.4882 20.6158 26.3793C20.8081 26.2704 20.9682 26.1125 21.0796 25.9215C21.191 25.7306 21.2498 25.5136 21.25 25.2925V17.5" stroke="#0084FF" stroke-width="2" stroke-linecap="round" stroke-linejoin="round"/>
</svg>
