<svg width="50" height="50" viewBox="0 0 50 50" fill="none" xmlns="http://www.w3.org/2000/svg">
<path d="M19.0104 43.9583L1.45829 26.4583C1.24996 26.25 1.10274 26.0243 1.01663 25.7812C0.929126 25.5382 0.885376 25.2777 0.885376 25C0.885376 24.7222 0.929126 24.4618 1.01663 24.2187C1.10274 23.9757 1.24996 23.75 1.45829 23.5416L19.0104 5.98954C19.4965 5.50343 20.1041 5.26038 20.8333 5.26038C21.5625 5.26038 22.1875 5.52079 22.7083 6.04163C23.2291 6.56246 23.4895 7.1701 23.4895 7.86454C23.4895 8.55899 23.2291 9.16663 22.7083 9.68746L7.39579 25L22.7083 40.3125C23.1944 40.7986 23.4375 41.3972 23.4375 42.1083C23.4375 42.8208 23.177 43.4375 22.6562 43.9583C22.1354 44.4791 21.5277 44.7395 20.8333 44.7395C20.1388 44.7395 19.5312 44.4791 19.0104 43.9583Z" fill="#0185FF"/>
</svg>
