<svg width="25" height="25" viewBox="0 0 18 18" fill="none" xmlns="http://www.w3.org/2000/svg">
<path d="M12.1063 8.34516H9.58289V5.75585C9.58289 5.68089 9.52312 5.61957 9.45007 5.61957H8.6532C8.58015 5.61957 8.52039 5.68089 8.52039 5.75585V8.34516H5.99695C5.9239 8.34516 5.86414 8.40649 5.86414 8.48144V9.29912C5.86414 9.37407 5.9239 9.4354 5.99695 9.4354H8.52039V12.0247C8.52039 12.0997 8.58015 12.161 8.6532 12.161H9.45007C9.52312 12.161 9.58289 12.0997 9.58289 12.0247V9.4354H12.1063C12.1794 9.4354 12.2391 9.37407 12.2391 9.29912V8.48144C12.2391 8.40649 12.1794 8.34516 12.1063 8.34516Z" fill="#0185ff"/>
<path d="M9.05164 1.25861C4.94441 1.25861 1.61414 4.67582 1.61414 8.89027C1.61414 13.1047 4.94441 16.5219 9.05164 16.5219C13.1589 16.5219 16.4891 13.1047 16.4891 8.89027C16.4891 4.67582 13.1589 1.25861 9.05164 1.25861ZM9.05164 15.2273C5.64167 15.2273 2.87585 12.3893 2.87585 8.89027C2.87585 5.39129 5.64167 2.55326 9.05164 2.55326C12.4616 2.55326 15.2274 5.39129 15.2274 8.89027C15.2274 12.3893 12.4616 15.2273 9.05164 15.2273Z" fill="#0185ff"/>
</svg>
