<svg width="30" height="30" viewBox="0 0 40 40" fill="none" xmlns="http://www.w3.org/2000/svg">
<path d="M35.3905 8.81265L20.3905 3.81265C20.136 3.73432 19.8638 3.73432 19.6093 3.81265L4.62491 8.81265H4.59366L4.43741 8.89078H4.42179L4.26554 8.98453C4.26554 9.00015 4.24991 9.00015 4.23429 9.01578L4.10929 9.12515L3.99991 9.25015C3.99991 9.26578 3.98429 9.26578 3.98429 9.2814L3.89054 9.42203C3.89054 9.43765 3.89054 9.43765 3.87491 9.45328L3.81241 9.5939L3.76554 9.76578V9.81265C3.75012 9.87388 3.74485 9.93722 3.74991 10.0002V22.5001C3.74991 22.8317 3.88161 23.1496 4.11603 23.384C4.35045 23.6185 4.66839 23.7501 4.99991 23.7501C5.33143 23.7501 5.64937 23.6185 5.88379 23.384C6.11821 23.1496 6.24991 22.8317 6.24991 22.5001V11.7345L11.4999 13.4845C10.5136 15.0633 9.99361 16.8886 9.99991 18.7501C10.0005 20.4431 10.4309 22.1082 11.2507 23.5895C12.0706 25.0707 13.2531 26.3195 14.6874 27.2189C11.7068 28.3465 9.16219 30.3931 7.42179 33.0627C7.24439 33.3432 7.18429 33.6822 7.25443 34.0066C7.32457 34.331 7.51935 34.6148 7.79679 34.797C7.93294 34.8872 8.08563 34.9495 8.24603 34.9803C8.40643 35.0111 8.57134 35.0097 8.73121 34.9763C8.89108 34.9428 9.04272 34.878 9.17735 34.7856C9.31199 34.6931 9.42694 34.5749 9.51554 34.4377C10.6501 32.69 12.2036 31.2537 14.0346 30.2593C15.8657 29.265 17.9163 28.7441 19.9999 28.7441C22.0835 28.7441 24.1341 29.265 25.9652 30.2593C27.7963 31.2537 29.3497 32.69 30.4843 34.4377C30.5984 34.6109 30.7538 34.7531 30.9366 34.8513C31.1194 34.9495 31.3237 35.0006 31.5312 35.0002C31.7706 35.0027 32.0051 34.9318 32.203 34.797C32.4805 34.6148 32.6752 34.331 32.7454 34.0066C32.8155 33.6822 32.7554 33.3432 32.578 33.0627C30.8376 30.3931 28.293 28.3465 25.3124 27.2189C26.7467 26.3195 27.9292 25.0707 28.7491 23.5895C29.569 22.1082 29.9993 20.4431 29.9999 18.7501C30.0062 16.8886 29.4862 15.0633 28.4999 13.4845L35.3905 11.1877C35.6406 11.1055 35.8584 10.9464 36.0127 10.7332C36.1671 10.5199 36.2502 10.2634 36.2502 10.0002C36.2502 9.7369 36.1671 9.48037 36.0127 9.26714C35.8584 9.05391 35.6406 8.89485 35.3905 8.81265V8.81265ZM27.4999 18.7501C27.4999 20.7393 26.7097 22.6469 25.3032 24.0535C23.8967 25.46 21.989 26.2502 19.9999 26.2502C18.0108 26.2502 16.1031 25.46 14.6966 24.0535C13.2901 22.6469 12.4999 20.7393 12.4999 18.7501C12.5029 17.1497 13.0115 15.5912 13.953 14.297L19.6093 16.1876C19.863 16.2711 20.1368 16.2711 20.3905 16.1876L26.0468 14.297C26.9883 15.5912 27.4969 17.1497 27.4999 18.7501ZM26.0468 11.672H26.0312L19.9999 13.6877L13.9687 11.672H13.953L8.95303 10.0002L19.9999 6.31265L31.0468 10.0002L26.0468 11.672Z" fill="#0084FF"/>
</svg>
