<svg width="15" height="15" viewBox="0 0 15 15" fill="none" xmlns="http://www.w3.org/2000/svg">
<path d="M7.5 8.125C8.53553 8.125 9.375 7.28553 9.375 6.25C9.375 5.21447 8.53553 4.375 7.5 4.375C6.46447 4.375 5.625 5.21447 5.625 6.25C5.625 7.28553 6.46447 8.125 7.5 8.125Z" stroke="white" stroke-width="1.25" stroke-linecap="round" stroke-linejoin="round"/>
<path d="M7.5 1.25C6.17392 1.25 4.90215 1.77678 3.96447 2.71447C3.02678 3.65215 2.5 4.92392 2.5 6.25C2.5 7.4325 2.75125 8.20625 3.4375 9.0625L7.5 13.75L11.5625 9.0625C12.2488 8.20625 12.5 7.4325 12.5 6.25C12.5 4.92392 11.9732 3.65215 11.0355 2.71447C10.0979 1.77678 8.82608 1.25 7.5 1.25V1.25Z" stroke="white" stroke-width="1.25" stroke-linecap="round" stroke-linejoin="round"/>
</svg>
