<svg width="35" height="36" viewBox="0 0 35 36" fill="none" xmlns="http://www.w3.org/2000/svg">
<path d="M17.5 32.787C17.5 32.787 28.4375 24.037 28.4375 14.5579C28.4375 8.51744 23.5404 3.62036 17.5 3.62036C11.4596 3.62036 6.5625 8.51744 6.5625 14.5579C6.5625 24.037 17.5 32.787 17.5 32.787Z" stroke="white" stroke-linejoin="round"/>
<path d="M17.5 18.9329C18.0745 18.9329 18.6434 18.8197 19.1742 18.5998C19.705 18.38 20.1873 18.0577 20.5936 17.6515C20.9998 17.2452 21.3221 16.7629 21.542 16.2321C21.7618 15.7013 21.875 15.1324 21.875 14.5579C21.875 13.9833 21.7618 13.4144 21.542 12.8836C21.3221 12.3528 20.9998 11.8705 20.5936 11.4643C20.1873 11.058 19.705 10.7358 19.1742 10.5159C18.6434 10.296 18.0745 10.1829 17.5 10.1829C16.3397 10.1829 15.2269 10.6438 14.4064 11.4643C13.5859 12.2847 13.125 13.3975 13.125 14.5579C13.125 15.7182 13.5859 16.831 14.4064 17.6515C15.2269 18.4719 16.3397 18.9329 17.5 18.9329V18.9329Z" stroke="white" stroke-linejoin="round"/>
</svg>
