<svg width="27" height="28" viewBox="0 0 27 28" fill="none" xmlns="http://www.w3.org/2000/svg">
<g filter="url(#filter0_d_2_218)">
<path d="M13.2387 3.38575C13.8935 3.38575 14.5215 3.65143 14.9846 4.12435C15.4476 4.59727 15.7078 5.23869 15.7078 5.9075C15.7078 6.5763 15.4476 7.21772 14.9846 7.69064C14.5215 8.16356 13.8935 8.42924 13.2387 8.42924C12.5837 8.42924 11.9555 8.1635 11.4924 7.69048C11.0292 7.21745 10.769 6.57589 10.769 5.90693C10.769 5.23797 11.0292 4.59641 11.4924 4.12338C11.9555 3.65036 12.5837 3.38461 13.2387 3.38461V3.38575ZM13.2387 4.5181C12.8779 4.5181 12.5319 4.66448 12.2767 4.92504C12.0216 5.18561 11.8783 5.539 11.8783 5.9075C11.8783 6.27599 12.0216 6.62938 12.2767 6.88995C12.5319 7.15051 12.8779 7.29689 13.2387 7.29689C13.5996 7.29689 13.9458 7.15045 14.201 6.88978C14.4562 6.62911 14.5996 6.27557 14.5996 5.90693C14.5996 5.53829 14.4562 5.18475 14.201 4.92408C13.9458 4.66341 13.5996 4.51697 13.2387 4.51697V4.5181ZM5.50987 13.0221C5.50987 13.1722 5.45146 13.3162 5.3475 13.4224C5.24354 13.5286 5.10254 13.5882 4.95552 13.5882C4.80849 13.5882 4.66749 13.5286 4.56353 13.4224C4.45957 13.3162 4.40116 13.1722 4.40116 13.0221V10.207C4.4012 9.92969 4.5009 9.66199 4.68135 9.45473C4.8618 9.24747 5.11046 9.11506 5.38015 9.08261L5.50987 9.07469H8.56657C8.40525 9.35898 8.30686 9.67592 8.27831 10.0032L8.26944 10.207H5.50876V13.0221H5.50987ZM21.5573 13.5882C21.7043 13.5882 21.8453 13.5286 21.9493 13.4224C22.0532 13.3162 22.1116 13.1722 22.1116 13.0221V10.207L22.1039 10.0757C22.0724 9.80003 21.9428 9.5458 21.7399 9.36127C21.5369 9.17674 21.2747 9.07475 21.0029 9.07469H17.9163C18.0782 9.36117 18.1824 9.68955 18.2068 10.0383L18.2123 10.2082H21.0029V13.0221C21.0029 13.1722 21.0613 13.3162 21.1653 13.4224C21.2693 13.5286 21.4103 13.5882 21.5573 13.5882ZM15.996 9.07469C16.2677 9.07475 16.53 9.17674 16.733 9.36127C16.9359 9.5458 17.0654 9.80003 17.097 10.0757L17.1036 10.207V13.0221C17.1036 13.1722 17.0452 13.3162 16.9413 13.4224C16.8373 13.5286 16.6963 13.5882 16.5493 13.5882C16.4022 13.5882 16.2612 13.5286 16.1573 13.4224C16.0533 13.3162 15.9949 13.1722 15.9949 13.0221V10.207H10.4869V13.0221C10.4869 13.1722 10.4285 13.3162 10.3245 13.4224C10.2205 13.5286 10.0795 13.5882 9.9325 13.5882C9.78548 13.5882 9.64448 13.5286 9.54051 13.4224C9.43655 13.3162 9.37815 13.1722 9.37815 13.0221V10.207C9.37818 9.92969 9.47788 9.66199 9.65834 9.45473C9.83879 9.24747 10.0874 9.11506 10.3571 9.08261L10.4869 9.07469H15.9949H15.996ZM20.8899 6.26305C20.8899 5.68839 20.6663 5.13727 20.2685 4.73093C19.8706 4.32458 19.331 4.0963 18.7683 4.0963C18.2057 4.0963 17.6661 4.32458 17.2682 4.73093C16.8703 5.13727 16.6468 5.68839 16.6468 6.26305C16.6468 6.83771 16.8703 7.38884 17.2682 7.79518C17.6661 8.20153 18.2057 8.42981 18.7683 8.42981C19.331 8.42981 19.8706 8.20153 20.2685 7.79518C20.6663 7.38884 20.8899 6.83771 20.8899 6.26305ZM17.7555 6.26305C17.7555 5.98871 17.8622 5.72561 18.0522 5.53162C18.2421 5.33763 18.4997 5.22865 18.7683 5.22865C19.037 5.22865 19.2946 5.33763 19.4845 5.53162C19.6744 5.72561 19.7811 5.98871 19.7811 6.26305C19.7811 6.5374 19.6744 6.8005 19.4845 6.99449C19.2946 7.18848 19.037 7.29746 18.7683 7.29746C18.4997 7.29746 18.2421 7.18848 18.0522 6.99449C17.8622 6.8005 17.7555 6.5374 17.7555 6.26305ZM7.72728 4.09573C8.28994 4.09573 8.82956 4.32401 9.22742 4.73036C9.62528 5.1367 9.84879 5.68783 9.84879 6.26249C9.84879 6.83715 9.62528 7.38827 9.22742 7.79462C8.82956 8.20096 8.28994 8.42924 7.72728 8.42924C7.16462 8.42924 6.62501 8.20096 6.22715 7.79462C5.82929 7.38827 5.60577 6.83715 5.60577 6.26249C5.60577 5.68783 5.82929 5.1367 6.22715 4.73036C6.62501 4.32401 7.16462 4.09573 7.72728 4.09573ZM7.72728 5.22808C7.45867 5.22808 7.20106 5.33706 7.01112 5.53105C6.82119 5.72504 6.71448 5.98815 6.71448 6.26249C6.71448 6.53683 6.82119 6.79993 7.01112 6.99392C7.20106 7.18791 7.45867 7.29689 7.72728 7.29689C7.9959 7.29689 8.25351 7.18791 8.44344 6.99392C8.63338 6.79993 8.74009 6.53683 8.74009 6.26249C8.74009 5.98815 8.63338 5.72504 8.44344 5.53105C8.25351 5.33706 7.9959 5.22808 7.72728 5.22808ZM4.93778 14.7206C4.79075 14.7206 4.64975 14.7802 4.54579 14.8864C4.44183 14.9926 4.38342 15.1366 4.38342 15.2868V16.4191C4.38342 17.1699 4.67545 17.89 5.19525 18.4209C5.71506 18.9518 6.42007 19.25 7.15519 19.25H19.351C20.0861 19.25 20.7911 18.9518 21.3109 18.4209C21.8307 17.89 22.1227 17.1699 22.1227 16.4191V15.2868C22.1227 15.1366 22.0643 14.9926 21.9604 14.8864C21.8564 14.7802 21.7154 14.7206 21.5684 14.7206H4.93778ZM5.49213 16.4191V15.853H21.014V16.4191C21.014 16.8696 20.8388 17.3016 20.5269 17.6202C20.215 17.9387 19.792 18.1177 19.351 18.1177H7.15519C6.71412 18.1177 6.29111 17.9387 5.97923 17.6202C5.66734 17.3016 5.49213 16.8696 5.49213 16.4191Z" fill="white"/>
</g>
<defs>
<filter id="filter0_d_2_218" x="-1.83398" y="0" width="30.1742" height="30.6471" filterUnits="userSpaceOnUse" color-interpolation-filters="sRGB">
<feFlood flood-opacity="0" result="BackgroundImageFix"/>
<feColorMatrix in="SourceAlpha" type="matrix" values="0 0 0 0 0 0 0 0 0 0 0 0 0 0 0 0 0 0 127 0" result="hardAlpha"/>
<feOffset dy="4"/>
<feGaussianBlur stdDeviation="2"/>
<feComposite in2="hardAlpha" operator="out"/>
<feColorMatrix type="matrix" values="0 0 0 0 0 0 0 0 0 0 0 0 0 0 0 0 0 0 0.25 0"/>
<feBlend mode="normal" in2="BackgroundImageFix" result="effect1_dropShadow_2_218"/>
<feBlend mode="normal" in="SourceGraphic" in2="effect1_dropShadow_2_218" result="shape"/>
</filter>
</defs>
</svg>
