<svg width="28" height="20" viewBox="0 0 28 20" fill="none" xmlns="http://www.w3.org/2000/svg">
<path d="M17.75 0C20.4022 0 22.9457 1.05356 24.8211 2.92891C26.6964 4.80427 27.75 7.34779 27.75 9.99994C27.75 12.6521 26.6964 15.1956 24.8211 17.071C22.9457 18.9463 20.4022 19.9999 17.75 19.9999C15.0978 19.9999 12.5543 18.9463 10.6789 17.071C8.80357 15.1956 7.75 12.6521 7.75 9.99994C7.75 7.34779 8.80357 4.80427 10.6789 2.92891C12.5543 1.05356 15.0978 0 17.75 0ZM17.75 2.49998C15.7609 2.49998 13.8532 3.29016 12.4467 4.69667C11.0402 6.10318 10.25 8.01083 10.25 9.99994C10.25 11.989 11.0402 13.8967 12.4467 15.3032C13.8532 16.7097 15.7609 17.4999 17.75 17.4999C19.7391 17.4999 21.6468 16.7097 23.0533 15.3032C24.4598 13.8967 25.25 11.989 25.25 9.99994C25.25 8.01083 24.4598 6.10318 23.0533 4.69667C21.6468 3.29016 19.7391 2.49998 17.75 2.49998ZM16.5 4.99997H18.375V9.72494L21.2875 12.6374L19.9625 13.9624L16.5 10.4999V4.99997ZM1.5 17.4999C1.16848 17.4999 0.850537 17.3682 0.616116 17.1338C0.381696 16.8994 0.25 16.5814 0.25 16.2499C0.25 15.9184 0.381696 15.6004 0.616116 15.366C0.850537 15.1316 1.16848 14.9999 1.5 14.9999H6.2875C6.675 15.8874 7.175 16.7249 7.75 17.4999H1.5ZM2.75 11.2499C2.41848 11.2499 2.10054 11.1182 1.86612 10.8838C1.6317 10.6494 1.5 10.3315 1.5 9.99994C1.5 9.66842 1.6317 9.35048 1.86612 9.11606C2.10054 8.88164 2.41848 8.74995 2.75 8.74995H5.3125L5.25 9.99994L5.3125 11.2499H2.75ZM4 4.99997C3.66848 4.99997 3.35054 4.86827 3.11612 4.63385C2.8817 4.39944 2.75 4.0815 2.75 3.74998C2.75 3.41846 2.8817 3.10052 3.11612 2.8661C3.35054 2.63168 3.66848 2.49998 4 2.49998H7.75C7.175 3.27498 6.675 4.11247 6.2875 4.99997H4Z" fill="#0185ff"/>
</svg>
