<svg width="30" height="30" viewBox="0 0 45 40" fill="none" xmlns="http://www.w3.org/2000/svg">
<path d="M22.0109 0L0 10.69L5.86957 13.4389V18.6312C4.1087 19.2421 2.93478 21.0747 2.93478 22.9072C2.93478 24.7398 4.1087 26.5724 5.86957 27.1833V27.4887L3.22826 33.9027C2.34783 36.6516 2.93478 39.7059 7.33696 39.7059C11.7391 39.7059 12.3261 36.6516 11.4457 33.9027L8.80435 27.4887C10.5652 26.5724 11.7391 25.0452 11.7391 22.9072C11.7391 20.7692 10.5652 19.2421 8.80435 18.6312V14.9661L22.0109 21.3801L44.0217 10.69L22.0109 0ZM34.9239 19.8529L21.7174 25.9615L14.6739 22.6018V22.9072C14.6739 25.0452 13.7935 26.8778 12.3261 28.405L14.087 32.681V32.9864C14.3804 34.2081 14.6739 35.4299 14.3804 36.6516C16.4348 37.5679 18.7826 38.1787 21.7174 38.1787C31.4022 38.1787 34.9239 32.0701 34.9239 29.0158V19.8529Z" fill="white"/>
</svg>
