<svg width="15" height="15" viewBox="0 0 15 15" fill="none" xmlns="http://www.w3.org/2000/svg">
<path d="M7.5 7.5C9.22589 7.5 10.625 6.10089 10.625 4.375C10.625 2.64911 9.22589 1.25 7.5 1.25C5.77411 1.25 4.375 2.64911 4.375 4.375C4.375 6.10089 5.77411 7.5 7.5 7.5Z" stroke="white" stroke-width="2"/>
<path d="M10.625 8.75H10.845C11.302 8.75013 11.7431 8.9171 12.0856 9.21955C12.4281 9.522 12.6484 9.9391 12.705 10.3925L12.9494 12.345C12.9714 12.5209 12.9557 12.6994 12.9034 12.8688C12.8511 13.0382 12.7634 13.1945 12.6461 13.3274C12.5287 13.4602 12.3845 13.5666 12.2229 13.6395C12.0613 13.7124 11.886 13.75 11.7088 13.75H3.29129C3.11403 13.75 2.93878 13.7124 2.77719 13.6395C2.6156 13.5666 2.47135 13.4602 2.35402 13.3274C2.23669 13.1945 2.14897 13.0382 2.09667 12.8688C2.04436 12.6994 2.02868 12.5209 2.05066 12.345L2.29441 10.3925C2.3511 9.93889 2.57155 9.52161 2.91431 9.21914C3.25707 8.91666 3.69852 8.74982 4.15566 8.75H4.37504" stroke="white" stroke-width="2" stroke-linecap="round" stroke-linejoin="round"/>
</svg>
