<svg width="30" height="30" viewBox="0 0 20 20" fill="none" xmlns="http://www.w3.org/2000/svg">
<path d="M2.5 3.75V5H16.25V15H7.5V16.25H18.75V15H17.5V3.75H2.5ZM5.00125 5.625C4.3388 5.6273 3.70413 5.8914 3.23559 6.3597C2.76704 6.82801 2.50264 7.46255 2.5 8.125C2.5 9.49937 3.6275 10.625 5.00125 10.625C5.66336 10.6224 6.29759 10.3581 6.76566 9.88978C7.23374 9.42147 7.4977 8.78712 7.5 8.125C7.5 6.75187 6.37375 5.625 5.00125 5.625ZM8.75 6.25V7.5H11.875V6.25H8.75ZM13.125 6.25V7.5H15V6.25H13.125ZM5.00125 6.875C5.6975 6.875 6.25 7.42688 6.25 8.125C6.25 8.825 5.69812 9.375 5.00125 9.375C4.30125 9.375 3.75 8.825 3.75 8.125C3.75 7.42688 4.30187 6.875 5.00125 6.875V6.875ZM8.75 8.75V10H15V8.75H8.75ZM2.5 11.25V16.25H3.75V12.5H5.625V16.25H6.875V12.9113L8.165 13.5938C8.53063 13.7875 8.97 13.7869 9.335 13.5938V13.595L11.5412 12.4281L10.9581 11.3219L8.75125 12.4888L6.81625 11.4675C6.5462 11.3248 6.24542 11.2502 5.94 11.25H2.5Z" fill="white"/>
</svg>
