<svg width="21" height="20" viewBox="0 0 21 20" fill="none" xmlns="http://www.w3.org/2000/svg">
<path d="M17.1667 6.27604C16.6806 6.49306 16.1554 6.64062 15.5911 6.71875C16.1814 6.37153 16.5851 5.86372 16.8021 5.19531C16.2378 5.52517 15.6562 5.74653 15.0573 5.85938C14.5278 5.28646 13.8637 5 13.0651 5C12.3099 5 11.6654 5.26693 11.1315 5.80078C10.5977 6.33464 10.3307 6.97917 10.3307 7.73438C10.3307 7.98611 10.3524 8.19444 10.3958 8.35938C9.27604 8.29861 8.22569 8.01649 7.24479 7.51302C6.26389 7.00955 5.43056 6.33681 4.74479 5.49479C4.49306 5.92882 4.36719 6.38889 4.36719 6.875C4.36719 7.86458 4.76215 8.62413 5.55208 9.15365C5.1441 9.14497 4.71007 9.03212 4.25 8.8151V8.84115C4.25 9.49219 4.46701 10.0716 4.90104 10.5794C5.33507 11.0872 5.86892 11.4019 6.5026 11.5234C6.25087 11.5929 6.02951 11.6276 5.83854 11.6276C5.72569 11.6276 5.55642 11.6102 5.33073 11.5755C5.51302 12.1224 5.83637 12.5738 6.30078 12.9297C6.76519 13.2856 7.29253 13.4679 7.88281 13.4766C6.87587 14.2578 5.74306 14.6484 4.48438 14.6484C4.25868 14.6484 4.04167 14.6354 3.83333 14.6094C5.11806 15.4253 6.51562 15.8333 8.02604 15.8333C8.99826 15.8333 9.90972 15.6793 10.7604 15.3711C11.6111 15.0629 12.3403 14.6506 12.9479 14.1341C13.5556 13.6176 14.0786 13.023 14.5169 12.3503C14.9553 11.6775 15.2808 10.9744 15.4935 10.2409C15.7062 9.50738 15.8125 8.77604 15.8125 8.04688C15.8125 7.89062 15.8082 7.77344 15.7995 7.69531C16.3464 7.30469 16.8021 6.8316 17.1667 6.27604ZM20.5 3.75V16.25C20.5 17.283 20.1332 18.1662 19.3997 18.8997C18.6662 19.6332 17.783 20 16.75 20H4.25C3.21701 20 2.33377 19.6332 1.60026 18.8997C0.866753 18.1662 0.5 17.283 0.5 16.25V3.75C0.5 2.71701 0.866753 1.83377 1.60026 1.10026C2.33377 0.366753 3.21701 0 4.25 0H16.75C17.783 0 18.6662 0.366753 19.3997 1.10026C20.1332 1.83377 20.5 2.71701 20.5 3.75Z" fill="white"/>
</svg>
