<svg width="60" height="60" viewBox="0 0 60 60" fill="none" xmlns="http://www.w3.org/2000/svg">
<path d="M55 52.5H38.75L35.0555 35.259C35.0186 35.0868 35 34.9113 35 34.7351V18.75L25.712 11.295C24.6366 10.4318 24.484 8.85196 25.3742 7.79886C26.1341 6.90004 27.4254 6.66773 28.4509 7.24531L40 13.75L44.9344 32.2539C44.978 32.4175 45.0381 32.5764 45.1139 32.7278L55 52.5Z" stroke="#0084FF" stroke-width="2" stroke-linecap="round" stroke-linejoin="round"/>
<path d="M45 32.5L35 35" stroke="#0084FF" stroke-width="2" stroke-linecap="round" stroke-linejoin="round"/>
<path d="M24.2237 31.9011L24.3036 31.9679C25.4827 32.9539 27.264 32.6522 28.0529 31.3331L30 28.077V22.2115L25.4 18.75L17.45 19.8076L12.2682 29.9271C12.2062 30.0481 12.1541 30.1741 12.1126 30.3036L5 52.5H19.95V36.25L21.25 30.109L21.875 27.5H23.75L23.3704 29.5219C23.2034 30.411 23.5297 31.3209 24.2237 31.9011Z" stroke="#0084FF" stroke-width="2" stroke-linecap="round" stroke-linejoin="round"/>
<path d="M12.5 31.25L20 35" stroke="#0084FF" stroke-width="2" stroke-linecap="round" stroke-linejoin="round"/>
</svg>
