<svg width="60" height="60" viewBox="0 0 60 60" fill="none" xmlns="http://www.w3.org/2000/svg">
<path d="M54.375 30C54.375 16.5387 43.4613 5.625 30 5.625C16.5387 5.625 5.625 16.5387 5.625 30C5.625 43.4613 16.5387 54.375 30 54.375C43.4613 54.375 54.375 43.4613 54.375 30Z" stroke="#0084FF" stroke-width="3" stroke-miterlimit="10"/>
<path d="M52.2152 20.1727C50.3331 20.1844 50.5183 23.6566 48.1734 22.0184C47.3027 21.4113 46.7671 20.5289 45.6738 20.2606C44.7187 20.0262 43.7402 20.2699 42.7968 20.4328C41.7245 20.618 40.4531 20.7012 39.6398 21.5133C38.8535 22.2949 38.4374 23.3438 37.6007 24.1301C35.9824 25.6535 35.2992 27.3164 36.3468 29.4703C37.3546 31.541 39.4628 32.6649 41.7374 32.5172C43.9722 32.3684 46.2937 31.0723 46.2292 34.3195C46.2058 35.468 46.446 36.2648 46.7988 37.3324C47.1257 38.3168 47.1035 39.2707 47.1785 40.2867C47.3167 42.1852 47.666 44.3133 48.6081 45.9902L50.366 43.5106C50.5828 43.2035 51.0363 42.7734 51.1441 42.4113C51.3351 41.7703 50.9589 40.6688 50.9156 39.9504C50.8722 39.232 50.8933 38.5043 50.7831 37.7859C50.6285 36.7793 50.0331 35.8359 49.9511 34.841C49.7999 32.9883 50.1386 31.5094 48.7113 29.9602C47.3331 28.466 45.3128 28.1074 43.3828 28.4109C42.4101 28.5633 38.4949 29.1891 40.0663 26.966C40.3769 26.5289 40.9195 26.1703 41.2687 25.7543C41.5722 25.3922 41.8359 24.7266 42.1921 24.4441C42.5484 24.1617 44.1843 23.8371 44.6531 23.9813C45.1218 24.1254 45.6105 24.8016 46.0171 25.1016C46.7684 25.6675 47.6452 26.0437 48.573 26.1984C50.1738 26.4328 53.5206 25.5024 53.4949 23.4492C53.4902 22.4649 52.5761 21.0938 52.2152 20.1727ZM33.6855 37.0664C33.0609 34.4367 29.4878 33.5578 27.5613 32.1316C26.4538 31.3113 25.4683 30.0445 24.014 29.9414C23.3437 29.8934 22.7824 30.0387 22.1179 29.8664C21.5085 29.7094 21.0304 29.3813 20.3812 29.4668C19.1683 29.6262 18.4031 30.9223 17.0999 30.7465C15.8636 30.5801 14.5898 29.134 14.3085 27.9563C13.9476 26.4422 15.1453 25.9512 16.4285 25.8164C16.964 25.7602 17.5652 25.6992 18.0796 25.8949C18.757 26.1469 19.0769 26.8102 19.6851 27.1453C20.8253 27.7699 21.0562 26.7715 20.8816 25.759C20.6203 24.2426 20.3156 23.6238 21.6679 22.5809C22.6054 21.8613 23.407 21.341 23.257 20.0484C23.1679 19.2891 22.7519 18.9457 23.1398 18.1899C23.4339 17.6145 24.2413 17.0953 24.7675 16.752C26.1257 15.866 30.5859 15.9316 28.7636 13.452C28.2281 12.7242 27.2402 11.4234 26.3027 11.2453C25.1308 11.0238 24.6105 12.3316 23.7937 12.9082C22.9499 13.5047 21.307 14.182 20.462 13.2598C19.3253 12.0188 21.2156 11.6109 21.6339 10.7449C22.0523 9.87891 20.6648 8.2418 19.9218 7.82696L16.4285 11.7445C16.3281 12.4006 16.363 13.0703 16.5311 13.7124C16.6992 14.3545 16.9969 14.9554 17.4058 15.4781C18.1007 16.3723 19.207 16.6594 19.2574 17.8805C19.3066 19.0524 19.1238 19.6524 18.3574 20.4762C18.0257 20.8277 17.7913 21.327 17.4538 21.6563C17.0402 22.0582 17.1937 21.9352 16.548 22.0453C15.3339 22.2504 14.3003 22.5668 13.1273 22.8902C11.1726 23.4305 10.9921 20.2371 10.1015 18.9844L7.17181 21.3504C7.14017 21.7383 7.65228 22.452 7.79174 22.8738C8.59213 25.2844 10.207 27.1488 11.2499 29.4551C12.348 31.8973 15.2964 31.2199 16.5984 33.3598C17.7538 35.2582 16.5199 37.6617 17.3847 39.6492C18.0128 41.0918 19.4941 41.407 20.516 42.4617C21.5601 43.527 21.5378 44.9848 21.6972 46.3711C21.8769 48.0017 22.1686 49.618 22.5703 51.2086C22.712 51.7582 22.8421 52.4848 23.2183 52.9383C23.4761 53.25 24.3609 53.5184 24.0035 53.6215C24.5027 53.7035 25.3921 54.1699 25.8081 53.8277C26.3566 53.3777 26.2101 51.9926 26.305 51.3668C26.5898 49.5035 27.5226 47.6813 28.7812 46.2867C30.0246 44.9109 31.7285 43.9793 32.7785 42.4195C33.8015 40.8984 34.1097 38.8465 33.6855 37.0664ZM29.7726 40.1508C29.0695 41.4059 27.5038 42.2461 26.4972 43.2434C26.2242 43.5141 25.6429 44.4516 25.3007 44.2488C25.0558 44.1035 24.9726 42.8871 24.8824 42.6082C24.4169 41.2038 23.5282 39.9778 22.3382 39.0984C21.9714 38.8207 21.062 38.4598 20.8523 38.0789C20.6179 37.6652 20.8288 36.6891 20.837 36.2391C20.8499 35.5828 20.5511 34.4918 20.7128 33.8953C20.9003 33.2074 20.5394 33.6223 21.1546 33.4863C21.4792 33.4137 22.8199 33.6492 23.2242 33.7336C23.8663 33.8672 24.2203 34.2668 24.7265 34.6711C26.0578 35.7387 27.5238 36.5648 29.0156 37.3828C30.171 38.0227 30.5109 38.8324 29.7726 40.1508ZM21.6163 7.86212C22.1718 8.40469 22.6945 9.04688 23.523 9.10079C24.307 9.15352 25.0464 8.7293 25.7308 9.26251C26.4902 9.84844 27.0374 10.5902 28.0453 10.7731C29.0203 10.95 30.0527 10.3805 30.2941 9.38321C30.5285 8.43282 30.0234 7.39923 29.9929 6.44532C29.9929 6.3129 30.0644 5.72462 29.973 5.62501C29.905 5.55001 29.3378 5.63438 29.2511 5.63673C28.616 5.65548 27.9824 5.69923 27.3503 5.76798C25.0462 6.01737 22.7897 6.5955 20.6495 7.48477C20.9343 7.68165 21.2917 7.76016 21.6163 7.86212ZM41.7656 14.4457C42.7605 14.4457 43.7706 14.0004 43.4495 12.8496C43.18 11.8852 42.7206 10.8387 41.6027 11.359C40.8913 11.6895 39.8835 12.5309 39.8003 13.3652C39.7054 14.3121 41.1023 14.4457 41.7656 14.4457ZM40.971 19.4813C41.987 20.0895 43.4941 19.8035 44.2605 18.9352C44.8593 18.2555 45.212 17.0754 46.289 17.0766C46.7631 17.0756 47.2186 17.2612 47.557 17.5934C48.0023 18.0539 47.9144 18.4863 48.0093 19.0629C48.2214 20.3578 49.6101 19.1367 49.9722 18.6352C50.2066 18.3082 50.5242 17.8231 50.4175 17.3977C50.3191 17.0004 49.855 16.5774 49.6488 16.2129C49.0464 15.1582 48.5507 13.9313 47.6484 13.0793C46.78 12.259 45.7124 12.3539 44.8886 13.2059C44.2136 13.909 43.4296 14.4656 42.9679 15.3211C42.6421 15.9223 42.2753 16.2094 41.6156 16.3652C41.2523 16.4508 40.8374 16.4824 40.5328 16.7262C39.6843 17.3941 40.1671 18.9984 40.971 19.4813Z" fill="#0084FF"/>
</svg>
