<svg width="60" height="60" viewBox="0 0 60 60" fill="none" xmlns="http://www.w3.org/2000/svg">
<path d="M6.75 42.1875C4.875 38.4375 3.75 34.3125 3.75 30C3.75 15.5625 15.5625 3.75 30 3.75V7.5C17.625 7.5 7.5 17.625 7.5 30C7.5 33.75 8.4375 37.125 10.125 40.3125L6.75 42.1875V42.1875ZM52.5 30C52.5 42.375 42.375 52.5 30 52.5C24.5625 52.5 19.5 50.625 15.5625 47.25L26.25 36.5625L23.625 33.75L11.4375 45.9375C10.6875 46.6875 10.6875 47.8125 11.4375 48.5625C16.3125 53.4375 23.0625 56.25 30 56.25C44.4375 56.25 56.25 44.4375 56.25 30H52.5Z" fill="#0084FF"/>
<path d="M33.75 46.875C33.5625 46.875 33.1875 46.875 33 46.6875C32.4375 46.5 31.875 45.9375 31.875 45.1875L30.5625 35.8125L34.3125 35.25L35.0625 41.4375L39.1875 38.25V28.125C39.1875 27.5625 39.375 27.1875 39.75 26.8125L45.75 20.8125C47.4375 19.125 48.5625 16.6875 48.5625 14.25V11.25H45.75C43.3125 11.25 40.875 12.1875 39.1875 14.0625L33.1875 20.0625C32.8125 20.4375 32.4375 20.625 31.875 20.625H21.5625L18.375 24.75L24.5625 25.5L24 29.25L14.625 27.9375C13.875 27.9375 13.3125 27.375 13.125 26.8125C12.9375 26.25 12.9375 25.5 13.3125 24.9375L18.9375 17.4375C19.5 17.0625 20.0625 16.875 20.625 16.875H31.125L36.75 11.25C39.1875 8.8125 42.5625 7.5 45.9375 7.5H48.75C50.8125 7.5 52.5 9.1875 52.5 11.25V14.0625C52.5 17.625 51.1875 20.8125 48.75 23.25L43.125 28.875V39.375C43.125 39.9375 42.9375 40.5 42.375 40.875L34.875 46.5C34.5 46.6875 34.125 46.875 33.75 46.875Z" fill="#0084FF"/>
</svg>
