<svg width="60" height="60" viewBox="0 0 60 60" fill="none" xmlns="http://www.w3.org/2000/svg">
<path d="M57.5137 28.5C57.5756 28.2787 57.6487 28.0631 57.7012 27.8381C57.7124 27.7931 57.7162 27.7481 57.7274 27.7031C58.2631 25.541 58.261 23.2806 57.7213 21.1194C57.1817 18.9583 56.121 16.9622 54.6318 15.3056C53.2587 13.4592 51.4696 11.9625 49.4097 10.9369C47.3498 9.91138 45.0772 9.3859 42.7762 9.40312H42.6787C42.4912 9.40312 42.2812 9.41625 42.0824 9.42187H41.8556C37.8929 9.64051 33.9541 10.176 30.0768 11.0231L21.6824 9.6825H21.6168C17.6186 8.99175 13.5043 9.65142 9.92245 11.5575C7.90455 12.7736 6.17166 14.4093 4.8412 16.3537L4.76432 16.4569L4.71745 16.5225C2.9573 19.1336 2.00017 22.2028 1.96419 25.3516C1.9282 28.5003 2.81493 31.5906 4.51495 34.2412C4.47932 34.305 4.4587 34.3762 4.42495 34.4419C4.26244 34.7669 4.12394 35.1035 4.01057 35.4487C3.95057 35.6362 3.90557 35.835 3.86245 36.03C3.8287 36.1894 3.79495 36.3469 3.77245 36.5062C3.74931 36.7049 3.73554 36.9045 3.7312 37.1044C3.7312 37.2656 3.71245 37.4231 3.71995 37.5825C3.73307 37.7925 3.75745 38.0006 3.7912 38.2087C3.8137 38.3569 3.82495 38.505 3.8587 38.6512C3.91495 38.8819 3.98995 39.1087 4.0762 39.33C4.11932 39.4481 4.14745 39.57 4.19995 39.6862C4.3537 40.0294 4.5412 40.3537 4.76245 40.6575C5.61077 41.8722 6.8625 42.7465 8.29495 43.125C8.24149 43.9245 8.37458 44.7255 8.68371 45.4648C8.99283 46.2041 9.46953 46.8615 10.0762 47.385C11.1506 48.3264 12.4684 48.9463 13.8787 49.1737C14.1693 50.1169 14.6793 50.9775 15.3656 51.6862C16.3018 52.7014 17.5672 53.3523 18.9374 53.5237C19.2637 54.6356 19.8824 55.6406 20.7299 56.43C21.7743 57.4575 23.1731 58.0425 24.6374 58.0612C25.7144 58.0562 26.7722 57.7761 27.7106 57.2475C29.1056 58.0462 30.7406 58.3162 32.3193 58.0087C33.148 57.8571 33.9331 57.525 34.6191 57.0361C35.3051 56.5471 35.8751 55.9132 36.2887 55.1794C36.3281 55.1175 36.3506 55.0631 36.3862 55.0012C37.9799 55.3275 39.6393 55.0406 41.0324 54.1987C42.2576 53.5071 43.1902 52.3945 43.6574 51.0675C45.3337 51.09 46.9574 50.4862 48.2081 49.3706C48.8933 48.7716 49.4255 48.0175 49.7601 47.1711C50.0947 46.3248 50.2222 45.4106 50.1318 44.505C50.1318 44.4525 50.1187 44.4112 50.1149 44.3606C51.0935 44.0674 51.9738 43.5132 52.6612 42.7575C53.5499 41.8203 54.1221 40.6279 54.297 39.3482C54.4719 38.0686 54.2408 36.7663 53.6362 35.625C55.3219 33.6773 56.5973 31.4096 57.3862 28.9575C57.4312 28.8131 57.4687 28.6556 57.5137 28.5ZM54.3037 25.3125C54.2102 26.2552 54.003 27.1832 53.6868 28.0762L53.6268 28.2637C53.0038 29.9318 52.105 31.4834 50.9681 32.8537C45.0862 27.72 36.5306 20.2275 35.8274 19.5562C35.0153 18.7789 33.9366 18.3415 32.8124 18.3337C32.4638 18.3307 32.1167 18.3807 31.7831 18.4819C30.5943 18.8569 27.6731 19.7944 25.1231 20.7412C24.1481 21.1031 23.0343 20.1787 22.6949 19.3912C22.4699 18.9187 22.4324 18.3787 22.5862 17.88C22.8918 17.3269 23.4056 16.9162 24.0131 16.74C29.7809 14.7124 35.8072 13.513 41.9118 13.1775H42.1387C42.3468 13.1775 42.5531 13.1625 42.7443 13.1587C44.1447 13.1357 45.5351 13.3992 46.8299 13.9331C48.7502 14.8084 50.4361 16.1255 51.7499 17.7769C52.9227 19.1042 53.7429 20.7052 54.1349 22.4325L54.1518 22.5187C54.242 22.9803 54.2991 23.4478 54.3224 23.9175C54.3281 24.0694 54.3374 24.2606 54.3374 24.4294C54.3374 24.7012 54.3374 24.9712 54.3056 25.2394L54.3037 25.3125ZM7.51307 37.7981C7.49995 37.7175 7.49995 37.6294 7.49995 37.545C7.47927 37.3643 7.47927 37.1819 7.49995 37.0012C7.52064 36.8948 7.54756 36.7896 7.58057 36.6862C7.61807 36.5194 7.67432 36.3562 7.74182 36.2006C7.8037 36.0881 7.87495 35.9794 7.9537 35.8781C8.06529 35.6952 8.20087 35.5281 8.35682 35.3812L8.36807 35.3719L11.8949 32.3812C12.1293 32.2008 12.3969 32.0683 12.6824 31.9914C12.968 31.9144 13.266 31.8946 13.5592 31.9329C13.8525 31.9712 14.1353 32.0669 14.3915 32.2147C14.6478 32.3624 14.8723 32.5592 15.0524 32.7937C15.1836 32.9857 15.2687 33.2054 15.3012 33.4356C15.3338 33.6658 15.3128 33.9004 15.2399 34.1212L9.7087 39.51C9.32686 39.5168 8.94978 39.4246 8.61426 39.2422C8.27873 39.0598 7.99623 38.7935 7.79432 38.4694C7.65499 38.2676 7.55921 38.039 7.51307 37.7981ZM12.2306 42.2887L18.2999 36.375L18.2718 36.3469C18.6133 36.1768 18.9991 36.1165 19.3762 36.1744C19.8581 36.3056 20.2931 36.5756 20.6249 36.9506C20.9549 37.2319 21.1762 37.6181 21.2512 38.0456C21.2791 38.4787 21.1842 38.9109 20.9774 39.2925C20.9583 39.3447 20.942 39.3979 20.9287 39.4519L14.7956 45.4275C14.3652 45.4463 13.9359 45.3723 13.5367 45.2105C13.1375 45.0487 12.7777 44.803 12.4818 44.49C12.2383 44.1833 12.0857 43.8144 12.0413 43.4253C11.9969 43.0362 12.0625 42.6425 12.2306 42.2887ZM17.4524 48.0731L23.7899 41.9062C24.1931 41.9869 24.5624 42.1931 24.8437 42.495C25.2324 42.8353 25.5029 43.2903 25.6162 43.7944C25.6458 44.0112 25.6363 44.2315 25.5881 44.445L20.1074 49.7794C19.7418 49.8473 19.3649 49.8209 19.0122 49.7028C18.6596 49.5847 18.3428 49.3788 18.0918 49.1044C17.799 48.8169 17.5797 48.4632 17.4524 48.0731ZM23.3343 53.7206C22.9952 53.4211 22.7274 53.0496 22.5506 52.6331L27.7274 47.595C28.0968 47.7169 28.4343 47.9175 28.7174 48.1819C28.9818 48.393 29.1813 48.6744 29.2931 48.9937C29.3567 49.2302 29.3567 49.4792 29.2931 49.7156C29.0589 50.472 28.6686 51.1708 28.1474 51.7669L26.7299 53.4169H26.7412C26.6943 53.4469 26.6418 53.46 26.5987 53.4937C26.0701 53.9762 25.3898 54.2594 24.6749 54.2944C24.1702 54.2859 23.6889 54.0799 23.3343 53.7206ZM31.7231 54.2962C31.4456 54.3394 31.1662 54.3525 30.8868 54.3337L31.0256 54.1725L31.0706 54.1181L31.0724 54.12C31.6407 53.4176 32.1218 52.6488 32.5049 51.8306L33.3337 52.7081C33.2658 52.8848 33.1843 53.0559 33.0899 53.22C32.9563 53.4896 32.7643 53.7261 32.5279 53.9122C32.2914 54.0984 32.0165 54.2296 31.7231 54.2962ZM43.7231 47.3119L40.3874 43.6162C40.101 43.2811 39.7056 43.0577 39.2707 42.9855C38.8358 42.9132 38.3894 42.9966 38.0099 43.221C37.6305 43.4455 37.3423 43.7965 37.1962 44.2125C37.0502 44.6284 37.0554 45.0826 37.2112 45.495C37.298 45.7288 37.4306 45.943 37.6012 46.125L40.2937 49.125C40.2749 49.3162 40.2356 49.5056 40.1756 49.6875C40.0194 50.2186 39.6631 50.6684 39.1818 50.9419C38.5956 51.3264 37.8842 51.4713 37.1943 51.3469L34.9443 48.9581C34.7014 48.7026 34.391 48.5214 34.0491 48.4354C33.7072 48.3495 33.3479 48.3623 33.0131 48.4725C32.984 48.2904 32.9446 48.1101 32.8949 47.9325C32.5854 46.9527 32.0096 46.0783 31.2318 45.4069C30.6869 44.9097 30.0627 44.5073 29.3849 44.2162C29.398 43.8674 29.376 43.5182 29.3193 43.1737C29.0776 41.8969 28.436 40.7301 27.4874 39.8419C26.7979 39.1437 25.9454 38.6282 25.0068 38.3419C25.0162 38.0906 25.0068 37.8412 24.9787 37.5919C24.8035 36.329 24.1998 35.1647 23.2687 34.2937C22.4208 33.4062 21.3317 32.7863 20.1356 32.5106C19.7287 32.4321 19.3137 32.4037 18.8999 32.4262C18.7528 31.7298 18.4552 31.0738 18.0281 30.5044C17.5467 29.8793 16.9468 29.3552 16.2626 28.9622C15.5785 28.5693 14.8236 28.3151 14.0411 28.2143C13.2585 28.1134 12.4638 28.1679 11.7024 28.3746C10.941 28.5813 10.2278 28.9361 9.6037 29.4187L9.53807 29.4712L7.22245 31.4212C6.13666 29.444 5.61713 27.2056 5.721 24.9522C5.82487 22.6988 6.54811 20.5177 7.8112 18.6487L7.85057 18.5925C8.8772 17.0618 10.2238 15.7721 11.7974 14.8125C14.668 13.3175 17.955 12.822 21.1387 13.4044L22.0087 13.5431C20.7233 14.1223 19.6966 15.155 19.1249 16.4437C18.8486 17.1508 18.7171 17.9062 18.7384 18.6651C18.7597 19.4239 18.9332 20.1708 19.2487 20.8612C19.8103 22.2197 20.8578 23.3203 22.1869 23.9485C23.5159 24.5766 25.0313 24.6872 26.4374 24.2587C28.9124 23.3419 31.7512 22.4212 32.8124 22.0856C32.8968 22.0828 32.9808 22.0991 33.058 22.1332C33.1353 22.1673 33.2039 22.2183 33.2587 22.2825C34.1756 23.145 45.2437 32.8331 49.8674 36.8625L50.2424 37.1831C50.5336 37.6547 50.6581 38.2104 50.5959 38.7612C50.5336 39.3119 50.2884 39.8259 49.8993 40.2206C49.6321 40.5086 49.2812 40.7053 48.8962 40.7831L45.6468 37.4887C45.2932 37.1521 44.8226 36.966 44.3343 36.9698C43.8461 36.9736 43.3784 37.1669 43.03 37.509C42.6816 37.8511 42.4797 38.3151 42.467 38.8032C42.4543 39.2913 42.6317 39.7652 42.9618 40.125L46.0668 43.2712C46.0799 43.3275 46.0949 43.3837 46.1118 43.4381L46.1343 43.4962C46.2751 43.8965 46.3603 44.3141 46.3874 44.7375C46.4395 45.059 46.4119 45.3883 46.3069 45.6966C46.202 46.0049 46.0229 46.2827 45.7856 46.5056C45.2249 47.0306 44.4843 47.3194 43.7174 47.3119H43.7231Z" fill="#0084FF"/>
</svg>
