<svg width="60" height="60" viewBox="0 0 60 60" fill="none" xmlns="http://www.w3.org/2000/svg">
<path d="M11.25 45H15V48.75H7.5V11.25H3.75V52.5H15V56.25H0V7.5H7.5V3.75H18.75C20.4688 3.75 22.1191 4.01367 23.7012 4.54102C25.2832 5.06836 26.7578 5.85938 28.125 6.91406C29.4727 5.85938 30.9375 5.06836 32.5195 4.54102C34.1016 4.01367 35.7617 3.75 37.5 3.75H48.75V7.5H56.25V31.4941L52.5 29.7949V11.25H48.75V28.0957L45 26.3672V7.5H37.5C36.1133 7.5 34.7852 7.73438 33.5156 8.20312C32.2461 8.67188 31.0742 9.36523 30 10.2832V28.0957L26.25 29.7949V10.2832C25.1953 9.38477 24.0332 8.70117 22.7637 8.23242C21.4941 7.76367 20.1562 7.51953 18.75 7.5H11.25V45ZM52.5 52.4707L39.375 59.0625L26.25 52.4707C26.25 51.7676 26.2598 51.0254 26.2793 50.2441C26.2988 49.4629 26.377 48.6719 26.5137 47.8711C26.6504 47.0703 26.8457 46.3184 27.0996 45.6152C27.3535 44.9121 27.7051 44.2578 28.1543 43.6523L22.5 41.0742V58.125H18.75V39.375L39.375 30L60 39.375L50.5957 43.6523L50.8301 43.9746C51.2402 44.5801 51.5527 45.2344 51.7676 45.9375C51.9824 46.6406 52.1484 47.3535 52.2656 48.0762C52.3828 48.7988 52.4512 49.541 52.4707 50.3027C52.4902 51.0645 52.5 51.7871 52.5 52.4707ZM39.375 34.1016L27.8027 39.375L39.375 44.6484L50.9473 39.375L39.375 34.1016ZM39.375 54.873L48.75 50.1562C48.7305 49.6484 48.6914 49.1895 48.6328 48.7793C48.5742 48.3691 48.4668 47.9687 48.3105 47.5781C48.1543 47.1875 47.998 46.8066 47.8418 46.4355C47.6855 46.0645 47.4609 45.6543 47.168 45.2051L39.375 48.75L31.582 45.2051C31.2891 45.6738 31.0547 46.0937 30.8789 46.4648C30.7031 46.8359 30.5469 47.207 30.4102 47.5781C30.2734 47.9492 30.1855 48.3398 30.1465 48.75C30.1074 49.1602 30.0684 49.6387 30.0293 50.1855L39.375 54.873Z" fill="#0084FF"/>
</svg>
