<svg width="60" height="60" viewBox="0 0 60 60" fill="none" xmlns="http://www.w3.org/2000/svg">
<path d="M10.3671 45.6431C9.86322 45.651 9.36284 45.5571 8.89507 45.3667C8.4273 45.1763 8.0015 44.8933 7.64245 44.5342C7.28339 44.1751 6.99827 43.7471 6.80367 43.275C6.60907 42.8029 6.50888 42.2962 6.50894 41.7844C6.509 41.2726 6.60931 40.7659 6.80402 40.2938C6.99874 39.8218 7.28397 39.3938 7.6431 39.0348C8.00224 38.6757 8.42811 38.3929 8.89593 38.2026C9.36374 38.0124 9.86414 37.9185 10.368 37.9266C11.3653 37.9425 12.3164 38.356 13.0161 39.078C13.7157 39.7999 14.1078 40.7723 14.1077 41.7853C14.1076 42.7983 13.7153 43.7706 13.0154 44.4924C12.3156 45.2141 11.3644 45.6275 10.3671 45.6431V45.6431ZM2.71662 59.6362V52.0762C2.71662 49.35 4.92185 47.1347 7.60893 47.1347H12.8548C15.5419 47.1347 17.9419 49.35 17.9419 52.0762V59.6362H2.7157H2.71662ZM49.752 45.3159C50.7594 45.3149 51.7253 44.9079 52.4375 44.1842C53.1497 43.4606 53.55 42.4794 53.5505 41.4562C53.5616 40.9425 53.4716 40.4316 53.2857 39.9536C53.0999 39.4757 52.8218 39.0402 52.468 38.6729C52.1142 38.3055 51.6917 38.0136 51.2253 37.8144C50.7589 37.6151 50.258 37.5124 49.752 37.5124C49.246 37.5124 48.7451 37.6151 48.2787 37.8144C47.8123 38.0136 47.3898 38.3055 47.036 38.6729C46.6822 39.0402 46.4042 39.4757 46.2183 39.9536C46.0324 40.4316 45.9424 40.9425 45.9535 41.4562C45.9538 42.4795 46.354 43.4608 47.0662 44.1845C47.7785 44.9082 48.7445 45.3152 49.752 45.3159V45.3159ZM57.3988 59.6362V52.0762C57.3988 49.35 55.1935 47.1347 52.5046 47.1347H47.2643C44.5726 47.1347 42.1763 49.35 42.1763 52.0762V59.6362H57.3979H57.3988ZM30.0526 45.6225C27.9295 45.6225 26.2099 43.8891 26.2099 41.7525C26.2099 39.6159 27.9295 37.8816 30.0526 37.8816C32.1739 37.8816 33.8935 39.615 33.8935 41.7525C33.8935 43.89 32.1748 45.6225 30.0526 45.6225ZM20.7988 59.6362L23.8228 51.2691C25.0339 46.995 28.5609 47.1272 28.5609 47.1272H31.5545C31.5545 47.1272 35.0797 46.9959 36.2926 51.2691L39.3166 59.6362H20.7988V59.6362ZM30.0526 32.9962V23.8416L28.5563 22.3219V31.4719H5.9197V2.36437H28.5563V17.3175L30.0526 18.8362V0.842804H4.42893V32.9953L30.0526 32.9962Z" fill="#0084FF"/>
<path d="M17.0179 8.62031C17.5386 8.59769 18.0306 8.37169 18.3912 7.98948C18.7517 7.60727 18.953 7.09839 18.953 6.56906C18.953 6.03972 18.7517 5.53084 18.3912 5.14863C18.0306 4.76642 17.5386 4.54042 17.0179 4.51781C16.4822 4.51781 15.9685 4.73392 15.5897 5.1186C15.211 5.50329 14.9982 6.02503 14.9982 6.56906C14.9982 7.11308 15.211 7.63483 15.5897 8.01951C15.9685 8.40419 16.4822 8.62031 17.0179 8.62031ZM23.6871 17.145C23.6871 17.145 22.0302 11.4291 22.0274 11.4244C21.3674 9.19968 19.5194 9.26624 19.5194 9.26624H14.52C14.52 9.26624 12.6693 9.19968 12.0102 11.4244L10.3533 17.145C10.319 17.2559 10.3068 17.3726 10.3174 17.4883C10.3281 17.604 10.3613 17.7164 10.4152 17.819C10.4691 17.9215 10.5426 18.0121 10.6313 18.0854C10.7201 18.1588 10.8224 18.2134 10.9321 18.2462C11.0419 18.279 11.1571 18.2892 11.2708 18.2763C11.3845 18.2633 11.4945 18.2275 11.5945 18.1709C11.6944 18.1143 11.7822 18.038 11.8528 17.9465C11.9234 17.8551 11.9753 17.7502 12.0056 17.6381L13.5877 12.1678L13.5914 12.1697L14.2967 12.1678V18.3928L11.5117 28.0997C11.4601 28.2786 11.4502 28.4672 11.4829 28.6506C11.5155 28.834 11.5898 29.0072 11.6998 29.1564C11.8098 29.3056 11.9525 29.4268 12.1166 29.5102C12.2807 29.5937 12.4617 29.6371 12.6453 29.6372C13.1576 29.6372 13.6302 29.2969 13.7816 28.7737L16.5323 19.1887H17.5062L20.257 28.7737C20.3003 28.9251 20.3727 29.0663 20.4699 29.1893C20.5671 29.3122 20.6872 29.4144 20.8234 29.4901C20.9596 29.5658 21.1091 29.6134 21.2634 29.6303C21.4178 29.6472 21.5739 29.633 21.7228 29.5884C21.8718 29.5443 22.0108 29.4707 22.1318 29.372C22.2528 29.2733 22.3535 29.1513 22.4281 29.013C22.5026 28.8748 22.5497 28.723 22.5664 28.5662C22.5832 28.4095 22.5694 28.251 22.5259 28.0997L19.741 18.3975V12.1687L20.4462 12.1706L20.4499 12.1687L22.0339 17.6391C22.0983 17.8616 22.2471 18.049 22.4475 18.1601C22.5468 18.2152 22.6557 18.2498 22.7682 18.262C22.8806 18.2743 22.9943 18.2639 23.1028 18.2316C23.2113 18.1992 23.3124 18.1454 23.4005 18.0733C23.4885 18.0013 23.5617 17.9123 23.6159 17.8115C23.6701 17.7106 23.7041 17.6 23.7162 17.4858C23.7283 17.3716 23.7181 17.2561 23.6862 17.1459L23.6871 17.145ZM49.7345 16.2834C48.743 16.2612 47.7996 15.8456 47.1061 15.1256C46.4126 14.4056 46.0243 13.4384 46.0243 12.4312C46.0243 11.4241 46.4126 10.4569 47.1061 9.73689C47.7996 9.01689 48.743 8.60127 49.7345 8.57906C50.2327 8.57869 50.7261 8.67816 51.1864 8.87177C51.6467 9.06538 52.0649 9.34933 52.417 9.70734C52.7691 10.0654 53.0481 10.4904 53.2382 10.9582C53.4283 11.4259 53.5256 11.9271 53.5247 12.4331C53.5254 12.9389 53.4278 13.4398 53.2376 13.9072C53.0474 14.3746 52.7683 14.7994 52.4162 15.157C52.0641 15.5147 51.646 15.7983 51.1859 15.9916C50.7257 16.1849 50.2325 16.284 49.7345 16.2834ZM49.7345 22.0125C49.7345 22.0125 50.6548 22.1334 51.2179 21.3412C51.7274 20.6175 51.7653 18.2194 51.769 17.7853H47.6963C47.6825 19.5112 47.88 20.7694 48.2862 21.4031C48.696 22.05 49.7345 22.0134 49.7345 22.0134V22.0125Z" fill="#0084FF"/>
<path d="M33.2076 25.4091C33.0683 25.6416 32.8513 26.1141 32.8513 26.4122C32.8513 27.3122 33.5667 28.035 34.4501 28.035H39.7089C40.3061 28.035 41.0907 27.7903 41.4258 27.2803C42.5566 25.575 43.752 23.7778 44.1046 23.2406V33.3394H57.3489V22.9828C57.3489 20.2744 55.2655 17.8359 52.8009 17.8359C52.8073 19.1072 52.6393 21.2184 51.9064 22.1428C51.1412 23.0869 50.2403 23.0044 50.2403 23.0044V26.9447C50.5241 27.0623 50.7588 27.2767 50.9041 27.5509C51.0493 27.8252 51.096 28.1422 51.0362 28.4476C50.9764 28.753 50.8137 29.0277 50.5762 29.2246C50.3386 29.4215 50.041 29.5283 49.7344 29.5266C49.5608 29.5267 49.3888 29.492 49.2283 29.4245C49.0679 29.357 48.9222 29.258 48.7995 29.1332C48.6767 29.0084 48.5795 28.8603 48.5133 28.6972C48.447 28.5342 48.4131 28.3595 48.4135 28.1831C48.4135 27.6253 48.7476 27.1472 49.2258 26.9447V22.9866C49.2258 22.9866 48.4393 23.0522 47.6963 22.2956C46.704 21.2456 46.667 18.27 46.6689 17.7834H46.428C45.6271 17.7829 44.8384 17.9833 44.1323 18.3671C43.4261 18.7508 42.8242 19.3058 42.3803 19.9828L39.2316 24.8081L34.4547 24.8063L27.7089 17.9541C27.6487 17.8925 27.5772 17.8437 27.4984 17.8104C27.4196 17.777 27.335 17.7599 27.2496 17.7599C27.1643 17.7599 27.0797 17.777 27.0009 17.8104C26.9221 17.8437 26.8506 17.8925 26.7904 17.9541C26.7298 18.0153 26.6816 18.088 26.6487 18.1681C26.6157 18.2483 26.5987 18.3342 26.5985 18.421C26.5983 18.5079 26.615 18.5939 26.6477 18.6741C26.6803 18.7544 26.7282 18.8273 26.7886 18.8888L33.2086 25.41L33.2076 25.4091Z" fill="#0084FF"/>
</svg>
