<svg width="60" height="60" viewBox="0 0 60 60" fill="none" xmlns="http://www.w3.org/2000/svg">
<path d="M15 50H32.5V55H15C12.225 55 10 52.775 10 50V10C10 8.67392 10.5268 7.40215 11.4645 6.46447C12.4021 5.52678 13.6739 5 15 5H45C46.3261 5 47.5979 5.52678 48.5355 6.46447C49.4732 7.40215 50 8.67392 50 10V31.35L46.25 29.3L45 30V10H32.5V30L26.25 24.375L20 30V10H15V50ZM60 42.5L46.25 35L32.5 42.5L46.25 50L60 42.5ZM37.5 47.725V52.725L46.25 57.5L55 52.725V47.725L46.25 52.5L37.5 47.725Z" fill="#0084FF"/>
</svg>
