<?xml version="1.0" encoding="UTF-8"?>
<!-- Generated by Pixelmator Pro 3.1.1 -->
<svg width="180" height="50" viewBox="0 0 180 50" xmlns="http://www.w3.org/2000/svg" xmlns:xlink="http://www.w3.org/1999/xlink">
    <path id="Path" fill="#fff" stroke="none" d="M 172.012726 31.352852 L 172.012726 27.443993 L 172.141037 27.443993 C 172.870941 27.461246 173.594803 27.308001 174.255096 26.996435 C 174.870255 26.656427 175.380173 26.153917 175.729111 25.543789 L 179.337082 27.364563 C 178.504578 28.710285 177.468933 29.733706 176.304977 30.35387 C 175.099792 31.015274 173.689911 31.357433 172.0448 31.357433 Z M 172.012726 24.135439 L 172.012726 21.465378 L 175.493896 21.465378 C 175.386963 20.504581 175.035645 19.756111 174.458252 19.28717 C 173.882385 18.775457 173.083496 18.523422 172.076889 18.523422 L 172.012726 18.523422 L 172.012726 14.86507 L 172.08757 14.86507 C 174.53157 14.86507 176.443985 15.592159 177.864563 17.043278 C 179.285126 18.4944 180.003067 20.483196 180.003067 22.98218 C 180.003067 23.134928 179.992355 23.280041 179.992355 23.45112 C 179.992355 23.6222 179.961823 23.836048 179.917511 24.135439 Z M 172.012726 12.667007 L 172.012726 8.246437 L 172.504578 7.329941 L 176.540222 7.329941 Z M 172.012726 8.246437 L 172.012726 12.667007 L 171.64003 13.094704 L 169.417511 13.094704 L 172.014252 8.246437 Z M 172.012726 14.86507 L 172.012726 18.517311 C 171.041245 18.538696 170.262222 18.775457 169.674149 19.281059 C 169.063141 19.75 168.691956 20.503056 168.531555 21.459267 L 172.012726 21.459267 L 172.012726 24.12933 L 168.392578 24.12933 C 168.563644 25.261202 168.959259 26.0723 169.590118 26.626781 C 170.220978 27.181263 171.009171 27.418026 172.012726 27.437881 L 172.012726 31.346743 C 169.545822 31.325356 167.602844 30.582994 166.160904 29.082994 C 164.709778 27.631874 163.971985 25.644604 163.971985 23.125763 C 163.971985 20.733706 164.735733 18.749491 166.263229 17.189919 C 167.758652 15.65173 169.680237 14.860489 172.018845 14.860489 Z M 139.753555 31.1833 L 139.753555 27.425661 C 140.9832 27.425661 141.933304 27.040733 142.626785 26.272404 C 143.300415 25.481161 143.630341 24.41497 143.630341 23.047863 C 143.630341 21.680752 143.288193 20.54888 142.594711 19.757637 C 141.901215 18.966394 140.960281 18.563135 139.776474 18.563135 L 139.753555 18.563135 L 139.753555 15.016293 C 140.295349 15.137447 140.814514 15.34367 141.291748 15.627293 C 142.207077 16.185703 142.958527 16.976151 143.469955 17.918533 L 143.469955 15.378311 L 147.6996 15.378311 L 147.6996 30.734215 L 143.384415 30.734215 L 143.437881 28.533094 C 142.840637 29.495417 142.125763 30.199593 141.259674 30.648676 C 140.787338 30.901194 140.279587 31.080919 139.753555 31.181772 Z M 156.177185 19.332994 C 156.635422 17.814663 157.287674 16.725559 158.120163 15.972504 C 158.952652 15.219448 160.000504 14.860489 161.25 14.860489 C 161.710541 14.887951 162.169388 14.938934 162.624756 15.013237 C 162.753052 15.034622 162.849289 15.034622 162.913452 15.056007 L 162.241348 19.85998 C 161.919647 19.716793 161.583084 19.609724 161.237778 19.540733 C 160.885513 19.471575 160.527527 19.435776 160.168518 19.433809 C 158.801422 19.433809 157.819244 19.774439 157.231155 20.480143 C 156.643066 21.162931 156.345215 22.337576 156.345215 23.959778 L 156.345215 30.731159 L 151.884933 30.731159 L 151.884933 15.378311 L 156.273422 15.378311 Z M 64.307533 27.807535 L 67.041748 24.711304 C 67.363014 25.540819 67.94313 26.244673 68.69603 26.718431 C 69.464676 27.206522 70.359459 27.458761 71.269852 27.443993 C 72.423119 27.443993 73.319756 27.188902 73.991852 26.654278 C 74.647644 26.11796 75.019592 25.309271 75 24.462322 C 75 23.371691 73.889511 22.30397 71.67923 21.214869 C 70.952141 20.872709 70.386963 20.57332 69.969963 20.360998 C 67.96283 19.337576 66.575867 18.3111 65.806007 17.328922 C 65.036148 16.346741 64.645111 15.144604 64.645111 13.756111 C 64.645111 11.855907 65.392059 10.296333 66.876785 9.100304 C 68.393585 7.878311 70.325867 7.284115 72.717926 7.284115 C 74.092667 7.284115 75.302444 7.519348 76.306007 7.989819 C 77.360352 8.533127 78.271126 9.318275 78.963852 10.281059 L 76.081467 13.050407 C 75.772621 12.427185 75.296669 11.902046 74.706718 11.533604 C 74.071991 11.212189 73.368172 11.051182 72.656822 11.064663 C 71.685333 11.064663 70.904785 11.2999 70.307533 11.790226 C 69.726936 12.237999 69.39724 12.937767 69.421593 13.67057 C 69.421593 14.86507 70.596237 15.996944 72.945518 16.980652 C 73.425156 17.1945 73.767311 17.342667 74.034622 17.451118 C 75.956215 18.347759 77.408859 19.351324 78.348267 20.461813 C 79.252045 21.528097 79.74408 22.882799 79.735237 24.28055 C 79.735237 26.419043 79.009674 28.146639 77.546333 29.406822 C 76.082993 30.667006 74.109474 31.349796 71.642563 31.349796 C 69.879837 31.349796 68.385948 31.007639 67.125763 30.410387 C 65.929688 29.870234 64.94088 28.956993 64.307533 27.807535 Z M 139.753555 15.016293 L 139.753555 18.561609 C 138.569748 18.561609 137.615067 18.945009 136.924652 19.734726 C 136.231155 20.547352 135.878311 21.636456 135.878311 23.046333 C 135.878311 24.42108 136.231155 25.479633 136.913956 26.270876 C 137.598267 27.034622 138.537674 27.424135 139.753555 27.424135 L 139.753555 27.424135 L 139.753555 31.1833 C 139.22258 31.288296 138.683258 31.345549 138.142059 31.354378 C 136.124237 31.354378 134.476074 30.590631 133.241852 29.063135 C 131.975555 27.572302 131.364563 25.543789 131.364563 23.067719 C 131.364563 20.504581 131.975555 18.454683 133.197556 17.023422 C 134.419556 15.592159 136.133392 14.86507 138.313141 14.86507 C 138.796997 14.870766 139.279266 14.921909 139.753555 15.017822 Z M 87.719452 15.378311 L 87.719452 23.45112 C 87.719452 24.825867 87.965378 25.779022 88.510696 26.376272 C 89.0224 26.932281 89.885437 27.230143 91.082993 27.230143 C 92.280548 27.230143 93.102341 26.924643 93.646133 26.333504 C 94.170059 25.779022 94.435844 24.796844 94.435844 23.45112 L 94.435844 15.378311 L 98.900711 15.378311 L 98.900711 23.45112 C 98.900711 26.141039 98.269859 28.149694 96.998985 29.408352 C 95.728111 30.667006 93.791245 31.351324 91.125763 31.351324 C 88.435852 31.351324 86.450104 30.711304 85.189919 29.429735 C 83.929741 28.148169 83.288185 26.142567 83.288185 23.45112 L 83.288185 15.378311 Z M 107.576889 30.734215 L 103.128822 30.734215 L 103.128822 15.378311 L 107.581467 15.378311 L 107.581467 17.791752 C 108.307022 16.788189 109.098267 16.019859 109.930756 15.570774 C 110.741852 15.078922 111.693481 14.86507 112.750511 14.86507 C 114.021385 14.86507 115.041756 15.144604 115.846741 15.628819 C 116.647151 16.163441 117.212835 16.953156 117.543793 17.997963 C 118.170197 17.047337 118.997734 16.245872 119.967926 15.650204 C 120.866364 15.129612 121.886787 14.856586 122.925156 14.858959 C 124.015785 14.858959 124.933815 15.052952 125.691444 15.457741 C 126.452774 15.856247 127.069458 16.484154 127.454178 17.252544 C 127.682709 17.725433 127.840698 18.229258 127.923111 18.747963 C 128.035706 19.589775 128.082184 20.439116 128.062119 21.288187 L 128.062119 30.728107 L 123.59877 30.728107 L 123.59877 23.130346 C 123.59877 21.297352 123.417 20.01273 123.021385 19.415478 C 122.648674 18.795317 121.975052 18.498981 121.035645 18.498981 C 119.893082 18.498981 119.060593 18.926682 118.52597 19.78055 C 118.024948 20.614561 117.779022 22.044296 117.779022 23.965885 L 117.779022 30.73727 L 113.294296 30.73727 L 113.294296 23.130346 C 113.294296 21.337067 113.133911 20.119654 112.781067 19.478106 C 112.428215 18.836557 111.80957 18.517311 110.934319 18.517311 C 109.759674 18.517311 108.916496 18.945009 108.392563 19.79888 C 107.868637 20.65275 107.581467 22.062626 107.581467 23.96283 Z"/>
    <path id="path1" fill="#fff" stroke="none" d="M 38.622711 10.424644 L 34.767311 6.87933 L 33.12373 5.426682 L 30.881365 3.841141 L 29.034624 2.90173 L 25.674135 1.75 L 22.370163 1.198574 L 19.370163 1.091648 L 17.641039 1.284115 L 15.514766 1.690426 L 13.304481 2.415989 L 11.303462 3.439411 L 9.14664 4.936356 L 7.661914 6.344704 L 6.551425 7.669044 L 5.32943 9.697556 L 4.142566 12.624237 L 4.024949 12.964867 L 3.834012 13.713341 L 3.665988 14.652748 L 3.526986 15.934319 L 3.441446 17.834522 L 3.580448 19.6278 L 3.885947 21.187372 L 4.312118 22.661406 L 4.953666 24.26222 L 5.604379 25.484217 L 6.2444 26.48778 L 7.099796 27.619654 L 7.57943 28.111507 L 8.081976 28.665989 L 0 38.209778 L 0.72556 39.001019 L 2.558554 40.815681 L 3.594196 41.819248 L 6.04888 43.997456 L 7.490835 45.022404 L 9.232179 46.197048 L 11.065173 47.157841 L 13.478615 48.097252 L 15.945519 48.696026 L 17.578411 48.865582 L 19.64053 48.909878 L 21.273422 48.757126 L 23.82892 48.291241 L 26.049896 47.501526 L 28.921589 46.006111 L 30.705704 44.660389 L 32.670063 42.827396 L 33.973015 41.226578 L 34.76273 40.073318 L 35.783096 38.057026 L 36.305496 36.627289 L 36.592667 35.580956 L 36.8722 34.106926 L 37.009674 32.547352 L 37.009674 31.094704 L 36.856922 29.493891 L 36.484219 27.660896 L 35.960285 26.079939 L 35.245419 24.627291 L 34.295315 23.047863 L 33.355907 21.851833 L 32.3722 20.697048 L 31.251019 19.714867 L 30.514767 19.181772 L 38.330959 10.704174 Z M 30.753056 31.78055 C 30.753056 34.769349 29.54277 37.374746 27.1222 39.596741 C 24.71945 41.817719 21.856924 42.928211 18.559063 42.928211 C 14.958757 42.928211 11.379837 41.220467 7.866599 37.823318 L 12.800407 32.03717 C 15.010692 34.343689 17.077394 35.475563 19.014257 35.475563 C 19.910896 35.475563 20.786152 35.09063 21.610998 34.279533 C 22.435846 33.468433 22.860489 32.613037 22.860489 31.737782 C 22.860489 29.923117 20.9389 28.342157 17.094196 26.932281 C 14.905295 26.121181 13.345723 25.394094 12.427699 24.689919 C 11.511202 23.96283 10.739817 22.959267 10.099796 21.63493 C 9.492974 20.35309 9.175893 18.953342 9.17108 17.535133 C 9.17108 14.437373 10.178208 11.917006 12.192464 9.974033 C 14.210794 8.072811 16.848269 7.119144 20.104887 7.113033 C 23.960285 7.113033 27.206211 8.307537 29.812119 10.722504 L 25.14715 15.848778 C 22.690937 14.417515 20.92668 13.67057 19.839104 13.67057 C 19.015203 13.6646 18.228897 14.014874 17.682281 14.631363 C 17.097855 15.221626 16.774824 16.021774 16.785641 16.852341 C 16.785641 18.583502 18.344704 20.078411 21.46283 21.337067 C 23.753054 22.300407 25.47556 23.175662 26.630346 23.96283 C 27.853125 24.805403 28.859577 25.924904 29.56772 27.230143 C 30.351841 28.61805 30.760399 30.186474 30.753056 31.78055 Z"/>
    <path id="path2" fill="#fff" stroke="#ffffff" stroke-width="0.429226" stroke-linecap="round" stroke-linejoin="round" d="M 51.094704 7.155804 L 51.094704 42.735744"/>
    <path id="path3" fill="#fff" stroke="none" d="M 68.806007 35.446537 C 67.906822 35.446537 67.197047 35.745926 66.676682 36.344704 C 66.156311 36.943481 65.89562 37.763746 65.894608 38.805496 C 65.894608 39.875763 66.145625 40.703667 66.647659 41.289207 C 67.149694 41.874746 67.86558 42.166498 68.795319 42.164463 C 69.457329 42.151108 70.114494 42.048344 70.748985 41.858963 L 70.748985 42.692974 C 70.073692 42.922203 69.363083 43.029778 68.6502 43.010693 C 67.443479 43.010693 66.513237 42.645112 65.859474 41.913952 C 65.205701 41.182791 64.877797 40.143585 64.875763 38.796333 C 64.859413 38.030304 65.021523 37.270973 65.349289 36.578411 C 65.6474 35.963917 66.123131 35.453068 66.714867 35.112015 C 67.35733 34.756824 68.082809 34.579147 68.816696 34.597252 C 69.593307 34.579884 70.363556 34.740829 71.06823 35.067719 L 70.66497 35.88493 C 70.085663 35.602264 69.450569 35.452492 68.806007 35.446537 Z"/>
    <path id="path4" fill="#fff" stroke="none" d="M 75.387985 43.009167 C 74.480652 43.009167 73.764765 42.733199 73.240326 42.181263 C 72.715886 41.629327 72.454175 40.862525 72.455193 39.880856 C 72.455193 38.891038 72.698573 38.105396 73.185333 37.52393 C 73.66906 36.941891 74.396591 36.618797 75.152748 36.650204 C 75.922605 36.650204 76.533602 36.904785 76.985741 37.413948 C 77.437879 37.923114 77.661911 38.590121 77.657837 39.41497 L 77.657837 40.003056 L 73.417519 40.003056 C 73.43585 40.723014 73.61762 41.269857 73.96283 41.643585 C 74.308044 42.017311 74.794299 42.203667 75.421593 42.202652 C 76.096268 42.200031 76.763252 42.059143 77.381363 41.788696 L 77.381363 42.6166 C 77.081802 42.749409 76.769638 42.851757 76.449593 42.9221 C 76.099556 42.986763 75.743881 43.015934 75.387985 43.009167 Z M 75.135948 37.4277 C 74.691597 37.408142 74.261055 37.584602 73.958244 37.910385 C 73.643211 38.284969 73.461121 38.753349 73.44043 39.242363 L 76.64817 39.242363 C 76.64817 38.655804 76.5168 38.208248 76.2556 37.896637 C 75.975342 37.575092 75.561699 37.401852 75.135948 37.4277 Z"/>
    <path id="path5" fill="#fff" stroke="none" d="M 83.828918 42.897659 L 83.828918 38.92617 C 83.828918 38.425153 83.714867 38.051936 83.486763 37.806519 C 83.259163 37.559063 82.903259 37.436863 82.417519 37.436863 C 81.775968 37.436863 81.306007 37.610489 81.007637 37.957741 C 80.709267 38.30499 80.559573 38.8778 80.558556 39.67617 L 80.558556 42.894604 L 79.629837 42.894604 L 79.629837 36.761711 L 80.393585 36.761711 L 80.546333 37.601833 L 80.59063 37.601833 C 80.784996 37.296104 81.062714 37.052311 81.391045 36.899185 C 81.749405 36.729721 82.141815 36.644547 82.538185 36.650204 C 83.277494 36.650204 83.834012 36.828411 84.207741 37.184826 C 84.581469 37.541241 84.767822 38.111506 84.7668 38.895622 L 84.7668 42.897659 Z"/>
    <path id="path6" fill="#fff" stroke="none" d="M 89.052956 42.242363 C 89.21196 42.242516 89.37075 42.230774 89.528 42.207233 C 89.6511 42.189072 89.77301 42.163567 89.893074 42.130859 L 89.893074 42.842667 C 89.750504 42.902458 89.600441 42.942543 89.447052 42.961811 C 89.272446 42.991837 89.095688 43.007671 88.918533 43.009167 C 87.732178 43.009167 87.139 42.38442 87.139 41.134926 L 87.139 37.484215 L 86.259171 37.484215 L 86.259171 37.036659 L 87.139 36.650204 L 87.530045 35.339615 L 88.067719 35.339615 L 88.067719 36.761711 L 89.847252 36.761711 L 89.847252 37.484215 L 88.064667 37.484215 L 88.064667 41.095215 C 88.04377 41.401577 88.13739 41.704788 88.327393 41.946026 C 88.51268 42.148449 88.778931 42.257191 89.052956 42.242363 Z"/>
    <path id="path7" fill="#fff" stroke="none" d="M 94.316704 36.650204 C 94.562729 36.648018 94.808365 36.670532 95.049896 36.717415 L 94.920059 37.578918 C 94.700104 37.527473 94.475349 37.499313 94.249496 37.494911 C 93.75425 37.495251 93.285828 37.719917 92.975555 38.105907 C 92.616997 38.524136 92.427917 39.061405 92.445526 39.612015 L 92.445526 42.90377 L 91.5168 42.90377 L 91.5168 36.761711 L 92.280548 36.761711 L 92.387474 37.898167 L 92.43177 37.898167 C 92.63166 37.533119 92.913483 37.219402 93.255096 36.98167 C 93.566589 36.7649 93.93721 36.649178 94.316704 36.650204 Z"/>
    <path id="path8" fill="#fff" stroke="none" d="M 101.894608 39.824341 C 101.894608 40.824341 101.640025 41.605399 101.130859 42.167515 C 100.621694 42.729633 99.925664 43.010184 99.04277 43.009167 C 98.529755 43.018616 98.024185 42.885353 97.582489 42.624237 C 97.15126 42.360146 96.807907 41.974266 96.595726 41.515278 C 96.354385 40.984901 96.235863 40.406891 96.248978 39.824341 C 96.248978 38.824338 96.49898 38.045315 96.998985 37.48727 C 97.49898 36.929226 98.193479 36.650204 99.082481 36.650204 C 99.940941 36.650204 100.622714 36.935844 101.1278 37.507126 C 101.632891 38.07841 101.888494 38.850815 101.894608 39.824341 Z M 97.220467 39.824341 C 97.220467 40.607437 97.37678 41.204686 97.689407 41.616089 C 98.004066 42.026985 98.463844 42.227085 99.073318 42.227085 C 99.682793 42.227085 100.142563 42.0224 100.458755 41.616089 C 100.774948 41.209778 100.930756 40.60947 100.930756 39.821281 C 100.930756 39.033096 100.778008 38.446537 100.458755 38.043282 C 100.139511 37.640022 99.676682 37.432281 99.061104 37.432281 C 98.445518 37.432281 97.991859 37.632385 97.686356 38.031059 C 97.380859 38.429733 97.220467 39.033096 97.220467 39.824341 Z"/>
    <path id="path9" fill="#fff" stroke="none" d="M 113.624237 34.713341 L 113.624237 40.009163 C 113.624237 40.941956 113.342669 41.675153 112.779533 42.208755 C 112.216393 42.742363 111.44195 43.009167 110.456207 43.009167 C 109.470469 43.009167 108.706724 42.740836 108.16497 42.204174 C 107.623217 41.667515 107.35336 40.928207 107.3554 39.986252 L 107.3554 34.713341 L 108.307022 34.713341 L 108.307022 40.05957 C 108.307022 40.742872 108.493886 41.267312 108.867615 41.632893 C 109.241343 41.998473 109.791242 42.181263 110.517311 42.181263 C 111.207736 42.181263 111.739812 41.997454 112.113541 41.629837 C 112.487269 41.26222 112.673625 40.733198 112.672607 40.04277 L 112.672607 34.713341 Z"/>
    <path id="path10" fill="#fff" stroke="none" d="M 120.250511 42.897659 L 120.250511 38.92617 C 120.250511 38.425153 120.136968 38.051936 119.909882 37.806519 C 119.682281 37.559063 119.326378 37.436863 118.84063 37.436863 C 118.199084 37.436863 117.728617 37.610489 117.42923 37.957741 C 117.129842 38.30499 116.980657 38.8778 116.981674 39.67617 L 116.981674 42.894604 L 116.052956 42.894604 L 116.052956 36.761711 L 116.816704 36.761711 L 116.969452 37.601833 L 117.015274 37.601833 C 117.209251 37.295769 117.487068 37.05188 117.815681 36.899185 C 118.174049 36.729721 118.56646 36.644547 118.96283 36.650204 C 119.702138 36.650204 120.258146 36.828411 120.630852 37.184826 C 121.003563 37.541241 121.19043 38.111506 121.191452 38.895622 L 121.191452 42.897659 Z"/>
    <path id="path11" fill="#fff" stroke="none" d="M 123.412422 35.099796 C 123.39563 34.929474 123.451042 34.759918 123.56517 34.632385 C 123.785789 34.432465 124.122063 34.432465 124.342674 34.632385 C 124.45768 34.756172 124.516296 34.922062 124.504585 35.09063 C 124.518913 35.262291 124.460114 35.43203 124.342674 35.558044 C 124.239151 35.658115 124.100166 35.713047 123.956215 35.710793 C 123.810516 35.715149 123.669342 35.659996 123.56517 35.558044 C 123.45488 35.431953 123.399841 35.266846 123.412422 35.099796 Z M 124.42057 42.897659 L 123.490326 42.897659 L 123.490326 36.761711 L 124.42057 36.761711 Z"/>
    <path id="path12" fill="#fff" stroke="none" d="M 128.135437 42.897659 L 125.806007 36.761711 L 126.803467 36.761711 L 128.124741 40.401733 C 128.327545 40.944508 128.50293 41.497139 128.650208 42.057537 L 128.69603 42.057537 C 128.803665 41.643627 128.933167 41.235725 129.084015 40.835541 C 129.301941 40.214358 129.791758 38.858452 130.553467 36.767822 L 131.550919 36.767822 L 129.226074 42.897659 Z"/>
    <path id="path13" fill="#fff" stroke="none" d="M 135.528519 43.009167 C 134.623215 43.009167 133.91038 42.733199 133.390015 42.181263 C 132.869659 41.629327 132.607442 40.862525 132.603363 39.880856 C 132.603363 38.891038 132.846746 38.105396 133.333511 37.52393 C 133.816376 36.943394 134.541809 36.62048 135.296326 36.650204 C 136.064158 36.650204 136.672613 36.904785 137.121689 37.413948 C 137.570775 37.923114 137.794301 38.590121 137.792267 39.41497 L 137.792267 40.003056 L 133.558044 40.003056 C 133.576375 40.723014 133.758657 41.269857 134.104889 41.643585 C 134.451121 42.017311 134.936864 42.203667 135.562119 42.202652 C 136.236801 42.200031 136.903778 42.059143 137.521896 41.788696 L 137.521896 42.6166 C 137.222397 42.74958 136.910217 42.851933 136.590118 42.9221 C 136.240097 42.986828 135.884415 43.015999 135.528519 43.009167 Z M 135.276474 37.4277 C 134.833328 37.408024 134.403519 37.581951 134.098785 37.904278 C 133.783737 38.278858 133.601654 38.747242 133.580963 39.236252 L 136.788696 39.236252 C 136.788696 38.649696 136.657333 38.202137 136.396133 37.89053 C 136.114685 37.571247 135.701218 37.400333 135.276474 37.4277 Z"/>
    <path id="path14" fill="#fff" stroke="none" d="M 142.570267 36.650204 C 142.816299 36.648018 143.06192 36.670532 143.303452 36.717415 L 143.175156 37.578918 C 142.954666 37.527554 142.729401 37.499397 142.503052 37.494911 C 142.007813 37.495251 141.539398 37.719917 141.229126 38.105907 C 140.871109 38.524361 140.682587 39.061607 140.700607 39.612015 L 140.700607 42.90377 L 139.765778 42.90377 L 139.765778 36.761711 L 140.529526 36.761711 L 140.636459 37.898167 L 140.682281 37.898167 C 140.882172 37.533119 141.164001 37.219402 141.5056 36.98167 C 141.817947 36.764301 142.189728 36.648552 142.570267 36.650204 Z"/>
    <path id="path15" fill="#fff" stroke="none" d="M 148.810089 41.223526 C 148.836594 41.744038 148.595901 42.242153 148.1716 42.544807 C 147.746948 42.850306 147.150202 43.003056 146.381363 43.003056 C 145.566696 43.003056 144.931768 42.874746 144.476578 42.618126 L 144.476578 41.755089 C 144.779129 41.907768 145.097824 42.026123 145.426682 42.107941 C 145.745453 42.191029 146.073334 42.234131 146.402756 42.236252 C 146.888489 42.236252 147.2612 42.159874 147.522415 42.004074 C 147.750885 41.869228 147.897522 41.629745 147.913757 41.364929 C 147.929977 41.100117 147.813675 40.844521 147.603363 40.682793 C 147.397156 40.513237 146.992355 40.313133 146.392059 40.080956 C 145.966629 39.93829 145.557114 39.751961 145.170059 39.524948 C 144.95134 39.388817 144.767273 39.203697 144.632385 38.984215 C 144.509766 38.763561 144.448578 38.514057 144.4552 38.261711 C 144.441299 37.788193 144.672165 37.340878 145.066193 37.077904 C 145.473521 36.789716 146.033605 36.645112 146.746445 36.644093 C 147.412766 36.645386 148.071823 36.782604 148.683304 37.047352 L 148.353363 37.803463 C 147.82341 37.568245 147.252686 37.438534 146.673111 37.421589 C 146.328033 37.400429 145.983597 37.472164 145.675659 37.629326 C 145.466583 37.74292 145.337311 37.962677 145.339615 38.200611 C 145.335617 38.350616 145.380081 38.497917 145.4664 38.620674 C 145.576416 38.758705 145.715027 38.871269 145.872711 38.950611 C 146.219147 39.125656 146.576279 39.278709 146.941956 39.408859 C 147.670064 39.672607 148.161916 39.93941 148.417511 40.209267 C 148.678314 40.481522 148.819626 40.84663 148.810089 41.223526 Z"/>
    <path id="path16" fill="#fff" stroke="none" d="M 150.644592 35.099796 C 150.627808 34.929474 150.683212 34.759918 150.797348 34.632385 C 151.01796 34.432465 151.354233 34.432465 151.574844 34.632385 C 151.689865 34.756172 151.748474 34.922062 151.736755 35.09063 C 151.751083 35.262291 151.692307 35.43203 151.574844 35.558044 C 151.471329 35.658115 151.332352 35.713047 151.1884 35.710793 C 151.042709 35.715149 150.90152 35.659996 150.797348 35.558044 C 150.687057 35.431953 150.632019 35.266846 150.644592 35.099796 Z M 151.652756 42.897659 L 150.722504 42.897659 L 150.722504 36.761711 L 151.652756 36.761711 Z"/>
    <path id="path17" fill="#fff" stroke="none" d="M 156.006104 42.242363 C 156.165115 42.242439 156.323898 42.230698 156.481171 42.207233 C 156.604279 42.189072 156.726181 42.163567 156.846222 42.130859 L 156.846222 42.842667 C 156.703659 42.902458 156.553604 42.942543 156.400208 42.961811 C 156.225601 42.991837 156.048843 43.007671 155.871689 43.009167 C 154.684321 43.009167 154.090637 42.38442 154.090637 41.134926 L 154.090637 37.484215 L 153.207733 37.484215 L 153.207733 37.036659 L 154.086044 36.650204 L 154.478622 35.339615 L 155.016296 35.339615 L 155.016296 36.761711 L 156.795822 36.761711 L 156.795822 37.484215 L 155.016296 37.484215 L 155.016296 41.095215 C 154.995392 41.401577 155.08902 41.704788 155.279022 41.946026 C 155.464661 42.14888 155.731567 42.257656 156.006104 42.242363 Z"/>
    <path id="path18" fill="#fff" stroke="none" d="M 162.245926 42.897659 L 162.067215 42.028515 L 162.022903 42.028515 C 161.783539 42.358006 161.469452 42.62603 161.106415 42.810589 C 160.744904 42.957027 160.356766 43.02623 159.966904 43.013748 C 159.355911 43.013748 158.880859 42.861 158.53717 42.544807 C 158.193481 42.228615 158.019348 41.781059 158.019348 41.206718 C 158.019348 39.968432 159.010183 39.318738 160.991852 39.257637 L 162.032074 39.224033 L 162.032074 38.843685 C 162.032074 38.362016 161.930242 38.0056 161.726578 37.774437 C 161.518845 37.545315 161.187378 37.429226 160.732178 37.429226 C 160.125885 37.454403 159.532928 37.615166 158.996948 37.899696 L 158.711304 37.189411 C 159.350906 36.848209 160.063797 36.66737 160.788696 36.662422 C 161.519867 36.662422 162.062129 36.824847 162.415482 37.149696 C 162.768845 37.474543 162.945012 37.995417 162.943985 38.712318 L 162.943985 42.899185 Z M 160.147156 42.242363 C 160.725566 42.242363 161.179738 42.084012 161.509674 41.767311 C 161.83961 41.45061 162.005086 41.006618 162.006104 40.435337 L 162.006104 39.880856 L 161.075867 39.919044 C 160.336558 39.945518 159.803975 40.06059 159.478119 40.264259 C 159.151947 40.465561 158.963409 40.83033 158.987778 41.21283 C 158.969543 41.500408 159.081726 41.780914 159.293274 41.976578 C 159.535965 42.166328 159.839645 42.260849 160.147156 42.242363 Z M 159.928711 35.810081 C 160.107437 35.57943 160.301422 35.299896 160.507645 34.971489 C 160.686035 34.69466 160.849686 34.408619 160.997971 34.114563 L 162.128311 34.114563 L 162.128311 34.238289 C 161.905655 34.553837 161.660629 34.852978 161.395111 35.1334 C 161.133377 35.427483 160.851105 35.702614 160.5504 35.956722 L 159.928711 35.956722 Z"/>
    <path id="path19" fill="#fff" stroke="none" d="M 168.050415 36.650204 C 168.296432 36.648018 168.542084 36.670532 168.7836 36.717415 L 168.655289 37.578918 C 168.434799 37.527554 168.209534 37.499397 167.9832 37.494911 C 167.487976 37.495251 167.019547 37.719917 166.709274 38.105907 C 166.351257 38.524361 166.162735 39.061607 166.180756 39.612015 L 166.180756 42.90377 L 165.250504 42.90377 L 165.250504 36.761711 L 166.014252 36.761711 L 166.121185 37.898167 L 166.165466 37.898167 C 166.365356 37.533119 166.647202 37.219402 166.9888 36.98167 C 167.300293 36.7649 167.670914 36.649178 168.050415 36.650204 Z"/>
    <path id="path20" fill="#fff" stroke="none" d="M 170.253052 35.099796 C 170.237579 34.929619 170.292816 34.760574 170.405792 34.632385 C 170.627182 34.432961 170.963425 34.432961 171.184814 34.632385 C 171.29985 34.756172 171.358444 34.922062 171.346741 35.09063 C 171.359924 35.26215 171.301285 35.431438 171.184814 35.558044 C 171.081131 35.657829 170.942276 35.712711 170.79837 35.710793 C 170.652191 35.715389 170.510437 35.660236 170.405792 35.558044 C 170.296097 35.43161 170.24115 35.266762 170.253052 35.099796 Z M 171.2612 42.897659 L 170.332489 42.897659 L 170.332489 36.761711 L 171.2612 36.761711 Z"/>
    <path id="path21" fill="#fff" stroke="none" d="M 178.92923 39.824341 C 178.92923 40.824341 178.674647 41.605399 178.165482 42.167515 C 177.656316 42.729633 176.960286 43.010184 176.077393 43.009167 C 175.564377 43.018616 175.058807 42.885353 174.617111 42.624237 C 174.185913 42.360554 173.842941 41.974518 173.631866 41.515278 C 173.389297 40.985252 173.270218 40.407078 173.283615 39.824341 C 173.283615 38.824338 173.534119 38.045315 174.035126 37.48727 C 174.536153 36.929226 175.230148 36.650204 176.117111 36.650204 C 176.975561 36.650204 177.657842 36.935844 178.163956 37.507126 C 178.670059 38.07841 178.925151 38.850815 178.92923 39.824341 Z M 174.255096 39.824341 C 174.255096 40.607437 174.411916 41.204686 174.725555 41.616089 C 175.039195 42.027494 175.499995 42.231159 176.107956 42.227085 C 176.718948 42.227085 177.180756 42.02342 177.493378 41.616089 C 177.80601 41.208755 177.963852 40.610486 177.966904 39.821281 C 177.966904 39.040733 177.814148 38.446537 177.493378 38.043282 C 177.172607 37.640022 176.71283 37.432281 176.097244 37.432281 C 175.481659 37.432281 175.028 37.632385 174.722504 38.031059 C 174.417007 38.429733 174.255096 39.033096 174.255096 39.824341 Z"/>
</svg>
